<?xml version="1.0" encoding="UTF-8"?>
<!DOCTYPE svg PUBLIC "-//W3C//DTD SVG 1.1//EN" "http://www.w3.org/Graphics/SVG/1.1/DTD/svg11.dtd">
<svg xmlns="http://www.w3.org/2000/svg" version="1.1" width="500px" height="500px" style="shape-rendering:geometricPrecision; text-rendering:geometricPrecision; image-rendering:optimizeQuality; fill-rule:evenodd; clip-rule:evenodd" xmlns:xlink="http://www.w3.org/1999/xlink">
<g><path style="opacity:0.92" fill="#5db9ff" d="M 248.5,41.5 C 250.564,41.687 252.564,42.187 254.5,43C 297.28,81.1735 312.446,128.674 300,185.5C 297.558,195.154 294.558,204.487 291,213.5C 319.983,201.688 350.149,197.521 381.5,201C 417.951,205.684 449.117,220.851 475,246.5C 475.167,247.333 475.333,248.167 475.5,249C 473.669,251.465 472.002,254.131 470.5,257C 469.5,257.333 468.5,257.667 467.5,258C 458.401,266.695 448.401,274.195 437.5,280.5C 429.628,284.291 421.628,287.791 413.5,291C 406.954,291.923 400.621,293.589 394.5,296C 358.669,301.221 323.836,297.721 290,285.5C 292.406,293.626 295.406,301.626 299,309.5C 312.309,360.026 301.643,404.359 267,442.5C 262.163,448.177 256.496,452.843 250,456.5C 202.311,417.749 186.645,368.083 203,307.5C 205.781,300.938 208.281,294.271 210.5,287.5C 176.333,298.032 141.5,300.699 106,295.5C 91.9505,292.096 78.4505,287.262 65.5,281C 57.9803,275.742 50.3136,270.742 42.5,266C 37.6609,260.828 32.4943,255.995 27,251.5C 26.161,248.86 26.661,246.527 28.5,244.5C 71.1946,205.463 121.361,191.796 179,203.5C 188.735,205.808 198.235,208.808 207.5,212.5C 207.833,212.167 208.167,211.833 208.5,211.5C 204.965,203.063 202.132,194.396 200,185.5C 187.656,127.519 203.823,79.5188 248.5,41.5 Z M 241.5,110.5 C 263.334,107.089 279.001,115.089 288.5,134.5C 292.841,156.652 284.508,171.819 263.5,180C 240.423,185.208 223.59,177.375 213,156.5C 209.226,141.097 213.393,128.264 225.5,118C 230.722,114.998 236.056,112.498 241.5,110.5 Z M 131.5,213.5 C 153.588,211.799 169.088,220.799 178,240.5C 181.108,254.375 177.608,266.208 167.5,276C 146.684,290.917 126.851,289.75 108,272.5C 100.658,263.303 98.3251,252.97 101,241.5C 104.035,234.806 107.869,228.64 112.5,223C 118.709,219.229 125.042,216.062 131.5,213.5 Z M 350.5,213.5 C 360.069,212.998 369.236,214.664 378,218.5C 394.708,228.624 400.374,243.29 395,262.5C 392.872,267.302 390.205,271.635 387,275.5C 367.624,289.443 348.457,289.443 329.5,275.5C 319.015,265.231 315.848,252.897 320,238.5C 323.71,230.122 329.543,223.622 337.5,219C 342.169,217.406 346.502,215.573 350.5,213.5 Z M 246.5,312.5 C 272.316,312.006 286.983,324.339 290.5,349.5C 287.046,372.28 273.713,384.28 250.5,385.5C 220.041,381.982 208.041,365.149 214.5,335C 216.464,330.689 218.964,326.855 222,323.5C 229.574,318.37 237.741,314.704 246.5,312.5 Z"/></g>
<g><path style="opacity:0.854" fill="#5db9ff" d="M 200.5,82.5 C 202.5,82.5 204.5,82.5 206.5,82.5C 206.5,83.8333 206.5,85.1667 206.5,86.5C 204.4,86.4772 202.567,87.1439 201,88.5C 190.743,95.754 181.077,103.754 172,112.5C 161.98,123.312 158.48,135.979 161.5,150.5C 163.301,156.094 166.967,159.927 172.5,162C 178.083,162.191 183.583,162.691 189,163.5C 189.151,170.896 189.818,178.229 191,185.5C 194.295,190.963 197.795,196.296 201.5,201.5C 199.579,202.641 197.579,202.808 195.5,202C 183.555,194.619 170.555,191.786 156.5,193.5C 159.437,177.936 153.104,168.769 137.5,166C 132.833,165.333 128.167,165.333 123.5,166C 117.853,167.657 112.52,169.99 107.5,173C 102.833,176.333 98.1667,179.667 93.5,183C 86.227,191.766 79.5603,200.933 73.5,210.5C 72.4153,206.154 72.582,201.821 74,197.5C 80.4969,177.615 90.1635,159.615 103,143.5C 117.652,127.197 134.486,113.363 153.5,102C 168.927,94.5895 184.594,88.0895 200.5,82.5 Z"/></g>
<g><path style="opacity:0.859" fill="#5db9ff" d="M 293.5,82.5 C 345.543,93.8102 385.543,121.81 413.5,166.5C 420.946,180.353 426.279,195.02 429.5,210.5C 428.167,210.5 426.833,210.5 425.5,210.5C 422.996,204.638 419.996,198.971 416.5,193.5C 411.511,188.335 406.511,183.169 401.5,178C 396.723,174.286 391.556,171.119 386,168.5C 372.369,163.482 359.536,164.982 347.5,173C 342.98,179.44 342.314,186.273 345.5,193.5C 331.135,191.658 317.968,194.658 306,202.5C 303.801,203.645 301.635,203.645 299.5,202.5C 303.11,195.719 306.944,189.052 311,182.5C 311.5,175.842 311.666,169.175 311.5,162.5C 328.522,165.612 338.522,158.779 341.5,142C 339.89,136.397 338.557,130.73 337.5,125C 326.788,107.784 312.455,94.6173 294.5,85.5C 293.614,84.675 293.281,83.675 293.5,82.5 Z"/></g>
<g><path style="opacity:0.902" fill="#5db9ff" d="M 242.5,120.5 C 263.247,117.467 275.913,125.967 280.5,146C 279.186,157.249 273.519,165.583 263.5,171C 246.349,176.276 233.183,171.443 224,156.5C 220.794,148.341 221.294,140.341 225.5,132.5C 230.124,126.853 235.791,122.853 242.5,120.5 Z"/></g>
<g><path style="opacity:0.896" fill="#5db9ff" d="M 132.5,223.5 C 140.882,223.007 148.882,224.507 156.5,228C 171.381,241.376 172.381,255.71 159.5,271C 150.016,276.452 139.85,277.952 129,275.5C 112.259,268.317 106.926,255.984 113,238.5C 115.769,234.685 118.936,231.185 122.5,228C 126.118,226.788 129.452,225.288 132.5,223.5 Z"/></g>
<g><path style="opacity:0.896" fill="#5db9ff" d="M 349.5,223.5 C 360.612,222.565 370.612,225.398 379.5,232C 387.184,241.989 388.351,252.823 383,264.5C 373.758,275.944 361.925,279.611 347.5,275.5C 330.684,268.429 325.35,256.262 331.5,239C 333.293,236.579 334.96,234.079 336.5,231.5C 340.836,228.515 345.169,225.849 349.5,223.5 Z"/></g>
<g><path style="opacity:0.859" fill="#5db9ff" d="M 72.5,288.5 C 74.1003,289.252 75.6003,290.252 77,291.5C 86.8012,310.965 101.968,324.465 122.5,332C 135.478,334.564 146.645,331.064 156,321.5C 156.499,316.177 156.666,310.844 156.5,305.5C 164.003,304.189 171.67,303.355 179.5,303C 186.025,300.11 192.358,296.943 198.5,293.5C 199.5,294.5 200.5,295.5 201.5,296.5C 197.609,301.586 194.109,306.919 191,312.5C 189.818,319.771 189.151,327.104 189,334.5C 182.092,335.009 175.258,336.176 168.5,338C 162.942,342.662 160.275,348.662 160.5,356C 161.219,365.583 164.053,374.416 169,382.5C 179.407,394.581 191.574,404.414 205.5,412C 206.747,413.494 206.747,414.994 205.5,416.5C 173.173,407.958 144.507,393.125 119.5,372C 97.5548,351.001 82.0548,325.835 73,296.5C 72.5026,293.854 72.3359,291.187 72.5,288.5 Z"/></g>
<g><path style="opacity:0.854" fill="#5db9ff" d="M 425.5,288.5 C 426.833,288.5 428.167,288.5 429.5,288.5C 425.709,306.703 418.876,323.703 409,339.5C 381.152,378.799 343.652,404.466 296.5,416.5C 295.098,416.135 294.098,415.301 293.5,414C 300.011,409.246 306.677,404.746 313.5,400.5C 320.157,394.509 326.491,388.176 332.5,381.5C 339.72,369.268 341.387,356.268 337.5,342.5C 335.639,341.472 334.305,339.972 333.5,338C 326.339,335.822 319.005,334.988 311.5,335.5C 311.666,328.825 311.5,322.158 311,315.5C 308.257,310.055 305.09,304.888 301.5,300C 299.765,297.598 299.432,295.098 300.5,292.5C 310.177,299.634 321.011,304.3 333,306.5C 337.111,305.596 341.278,305.263 345.5,305.5C 345.334,310.511 345.501,315.511 346,320.5C 346.36,322.421 347.194,324.088 348.5,325.5C 355.807,331.063 364.141,333.23 373.5,332C 391.7,327.337 406.366,317.504 417.5,302.5C 420.7,298.095 423.367,293.428 425.5,288.5 Z"/></g>
<g><path style="opacity:0.904" fill="#5db9ff" d="M 244.5,322.5 C 270.664,321.85 281.831,334.516 278,360.5C 272.103,370.337 263.27,375.67 251.5,376.5C 229.885,374.6 220.718,362.934 224,341.5C 225.709,335.699 228.875,330.866 233.5,327C 237.287,325.505 240.953,324.005 244.5,322.5 Z"/></g>
</svg>
