<?xml version="1.0" encoding="UTF-8"?>
<!DOCTYPE svg PUBLIC "-//W3C//DTD SVG 1.1//EN" "http://www.w3.org/Graphics/SVG/1.1/DTD/svg11.dtd">
<svg xmlns="http://www.w3.org/2000/svg" version="1.1" width="250px" height="239px" style="shape-rendering:geometricPrecision; text-rendering:geometricPrecision; image-rendering:optimizeQuality; fill-rule:evenodd; clip-rule:evenodd" xmlns:xlink="http://www.w3.org/1999/xlink">
<g><path style="opacity:0.445" fill="#010203" d="M 110.5,-0.5 C 111.833,-0.5 113.167,-0.5 114.5,-0.5C 130.019,1.39712 145.685,3.23045 161.5,5C 166.256,6.0224 170.923,7.35573 175.5,9C 184.167,14.3333 192.833,19.6667 201.5,25C 207.018,29.6842 212.018,34.8508 216.5,40.5C 226.206,41.1073 235.873,41.9407 245.5,43C 246,43.5 246.5,44 247,44.5C 247.874,48.9649 248.707,53.2983 249.5,57.5C 249.5,60.1667 249.5,62.8333 249.5,65.5C 247.447,76.0849 245.114,86.7515 242.5,97.5C 247.491,129.046 241.657,158.379 225,185.5C 219.211,193.291 213.044,200.791 206.5,208C 201.546,211.285 196.88,214.952 192.5,219C 186.737,222.548 180.737,225.548 174.5,228C 173.382,229.074 172.382,230.24 171.5,231.5C 156.948,235.39 142.281,237.723 127.5,238.5C 126.167,238.5 124.833,238.5 123.5,238.5C 83.4255,237.379 50.5921,221.379 25,190.5C 17.0759,177.654 11.0759,163.987 7,149.5C 4.42483,137.922 3.92483,126.255 5.5,114.5C 3.38386,98.3714 1.38386,82.3714 -0.5,66.5C -0.5,61.1667 -0.5,55.8333 -0.5,50.5C 0.112352,44.0475 3.77902,40.2142 10.5,39C 13.4262,38.7822 16.2595,38.2822 19,37.5C 21.7405,38.2822 24.5738,38.7822 27.5,39C 28.3333,39.8333 29.1667,40.6667 30,41.5C 32.6443,38.769 35.1443,35.9357 37.5,33C 46.36,28.1455 54.6934,22.4789 62.5,16C 66.5,13.6667 70.5,11.3333 74.5,9C 86.3918,4.99503 98.3918,1.82836 110.5,-0.5 Z"/></g>
<g><path style="opacity:0.976" fill="#4e6071" d="M 114.5,6.5 C 107.501,7.70041 100.501,9.36707 93.5,11.5C 99.7265,7.21465 106.726,5.54799 114.5,6.5 Z"/></g>
<g><path style="opacity:1" fill="#9aacb8" d="M 131.5,6.5 C 136.391,6.53188 141.057,7.19854 145.5,8.5C 141.486,8.66551 137.486,8.49885 133.5,8C 132.584,7.72158 131.918,7.22158 131.5,6.5 Z"/></g>
<g><path style="opacity:1" fill="#d6e0e4" d="M 115.5,6.5 C 120.681,5.36363 126.015,5.36363 131.5,6.5C 131.918,7.22158 132.584,7.72158 133.5,8C 137.486,8.49885 141.486,8.66551 145.5,8.5C 145.833,8.5 146.167,8.5 146.5,8.5C 148.167,9.16667 149.833,9.83333 151.5,10.5C 150.448,10.3505 149.448,10.5172 148.5,11C 151.025,13.5188 153.858,15.6855 157,17.5C 157.688,18.3317 157.521,18.9984 156.5,19.5C 149.731,18.1858 143.231,16.1858 137,13.5C 131.797,14.3393 126.63,15.3393 121.5,16.5C 126.364,17.4344 131.197,17.1011 136,15.5C 138.546,15.8586 140.713,16.8586 142.5,18.5C 129.396,17.9816 116.396,18.6482 103.5,20.5C 103.804,19.8501 104.137,19.1835 104.5,18.5C 103.167,17.8333 101.833,17.1667 100.5,16.5C 102.547,14.9848 104.881,14.1515 107.5,14C 109.116,13.3848 110.449,12.3848 111.5,11C 116.536,9.57333 121.536,8.23999 126.5,7C 122.848,6.50137 119.182,6.3347 115.5,6.5 Z"/></g>
<g><path style="opacity:0.902" fill="#46576d" d="M 146.5,8.5 C 149.187,8.33591 151.854,8.50258 154.5,9C 155.056,9.38258 155.389,9.88258 155.5,10.5C 154.167,10.5 152.833,10.5 151.5,10.5C 149.833,9.83333 148.167,9.16667 146.5,8.5 Z"/></g>
<g><path style="opacity:1" fill="#f5f8f9" d="M 151.5,10.5 C 152.833,10.5 154.167,10.5 155.5,10.5C 175.328,18.0164 192.495,29.683 207,45.5C 207.464,46.0944 207.631,46.7611 207.5,47.5C 204.097,47.8511 200.763,48.5178 197.5,49.5C 196.448,49.6495 195.448,49.4828 194.5,49C 186.045,40.3671 176.379,33.5338 165.5,28.5C 158.195,24.3961 150.528,21.0627 142.5,18.5C 140.713,16.8586 138.546,15.8586 136,15.5C 131.197,17.1011 126.364,17.4344 121.5,16.5C 126.63,15.3393 131.797,14.3393 137,13.5C 143.231,16.1858 149.731,18.1858 156.5,19.5C 157.521,18.9984 157.688,18.3317 157,17.5C 153.858,15.6855 151.025,13.5188 148.5,11C 149.448,10.5172 150.448,10.3505 151.5,10.5 Z"/></g>
<g><path style="opacity:1" fill="#e9f0f2" d="M 114.5,6.5 C 114.833,6.5 115.167,6.5 115.5,6.5C 119.182,6.3347 122.848,6.50137 126.5,7C 121.536,8.23999 116.536,9.57333 111.5,11C 110.449,12.3848 109.116,13.3848 107.5,14C 104.881,14.1515 102.547,14.9848 100.5,16.5C 101.833,17.1667 103.167,17.8333 104.5,18.5C 104.137,19.1835 103.804,19.8501 103.5,20.5C 101.847,20.6596 100.514,21.3263 99.5,22.5C 97.516,23.1557 95.516,23.8224 93.5,24.5C 92.5836,24.4573 91.9169,24.1239 91.5,23.5C 88.8574,20.7664 87.8574,17.4331 88.5,13.5C 89.7804,12.0687 91.4471,11.4021 93.5,11.5C 100.501,9.36707 107.501,7.70041 114.5,6.5 Z"/></g>
<g><path style="opacity:1" fill="#a5b8c3" d="M 88.5,13.5 C 87.8574,17.4331 88.8574,20.7664 91.5,23.5C 90.4168,23.4606 89.4168,23.1272 88.5,22.5C 86.6128,16.0048 85.6128,16.3381 85.5,23.5C 82.4377,23.1558 79.4377,22.4891 76.5,21.5C 79.6672,20.9993 82.0005,19.3326 83.5,16.5C 83.0431,15.7025 82.3764,15.3691 81.5,15.5C 83.4385,13.8372 85.7718,13.1706 88.5,13.5 Z"/></g>
<g><path style="opacity:1" fill="#495d77" d="M 80.5,15.5 C 77.9399,18.5375 74.6065,20.3708 70.5,21C 63.5837,25.9448 56.917,31.1115 50.5,36.5C 47.8061,38.5272 45.4728,40.8605 43.5,43.5C 43.5,42.5 43.5,41.5 43.5,40.5C 45.6281,37.8697 47.9614,35.3697 50.5,33C 55.6776,29.5776 60.6776,25.911 65.5,22C 70.2014,19.1547 75.2014,16.988 80.5,15.5 Z"/></g>
<g><path style="opacity:0.997" fill="#9eb2be" d="M 142.5,18.5 C 150.528,21.0627 158.195,24.3961 165.5,28.5C 164.262,28.81 164.262,29.31 165.5,30C 167.332,30.7485 168.999,31.7485 170.5,33C 170,33.5 169.5,34 169,34.5C 165.945,32.4808 162.778,30.6475 159.5,29C 158.207,28.51 156.873,28.3433 155.5,28.5C 140.863,24.2948 125.863,22.2948 110.5,22.5C 106.833,22.5 103.167,22.5 99.5,22.5C 100.514,21.3263 101.847,20.6596 103.5,20.5C 116.396,18.6482 129.396,17.9816 142.5,18.5 Z"/></g>
<g><path style="opacity:1" fill="#41526c" d="M 155.5,10.5 C 173.406,14.4522 189.072,22.6189 202.5,35C 206.541,38.1854 209.541,42.0188 211.5,46.5C 210.041,46.4326 208.708,46.7659 207.5,47.5C 207.631,46.7611 207.464,46.0944 207,45.5C 192.495,29.683 175.328,18.0164 155.5,10.5 Z"/></g>
<g><path style="opacity:0.996" fill="#70828f" d="M 91.5,23.5 C 91.9169,24.1239 92.5836,24.4573 93.5,24.5C 95.516,23.8224 97.516,23.1557 99.5,22.5C 103.167,22.5 106.833,22.5 110.5,22.5C 106.348,23.5522 102.015,24.3855 97.5,25C 92.8857,27.1528 88.219,28.9861 83.5,30.5C 84.8062,29.5326 85.4729,28.1993 85.5,26.5C 86.8333,25.5 86.8333,24.5 85.5,23.5C 85.6128,16.3381 86.6128,16.0048 88.5,22.5C 89.4168,23.1272 90.4168,23.4606 91.5,23.5 Z"/></g>
<g><path style="opacity:1" fill="#294e80" d="M 110.5,22.5 C 125.863,22.2948 140.863,24.2948 155.5,28.5C 156.29,29.4013 157.29,30.0679 158.5,30.5C 154.221,30.0826 149.888,28.7492 145.5,26.5C 139.292,27.7312 133.126,27.3979 127,25.5C 126.167,25.6667 125.333,25.8333 124.5,26C 126.373,27.7038 128.04,29.5372 129.5,31.5C 124.821,31.3342 120.155,31.5008 115.5,32C 114.934,32.9947 114.267,33.828 113.5,34.5C 114.436,31.0406 116.436,28.2072 119.5,26C 111.852,26.0965 104.186,26.4298 96.5,27C 91.5995,29.4644 86.5995,31.631 81.5,33.5C 82.1667,32.5 82.8333,31.5 83.5,30.5C 88.219,28.9861 92.8857,27.1528 97.5,25C 102.015,24.3855 106.348,23.5522 110.5,22.5 Z"/></g>
<g><path style="opacity:1" fill="#dfe7ea" d="M 80.5,15.5 C 80.8333,15.5 81.1667,15.5 81.5,15.5C 82.3764,15.3691 83.0431,15.7025 83.5,16.5C 82.0005,19.3326 79.6672,20.9993 76.5,21.5C 79.4377,22.4891 82.4377,23.1558 85.5,23.5C 86.8333,24.5 86.8333,25.5 85.5,26.5C 80.4555,29.242 75.4555,31.9087 70.5,34.5C 67.0127,35.7454 64.0127,37.7454 61.5,40.5C 61.7254,38.2841 60.8921,36.6174 59,35.5C 56.0924,36.1183 53.259,36.4516 50.5,36.5C 56.917,31.1115 63.5837,25.9448 70.5,21C 74.6065,20.3708 77.9399,18.5375 80.5,15.5 Z"/></g>
<g><path style="opacity:1" fill="#182e4e" d="M 113.5,34.5 C 111.236,35.2186 108.903,35.552 106.5,35.5C 107.303,34.5768 107.47,33.5768 107,32.5C 98.3798,34.4476 90.2131,37.4476 82.5,41.5C 82.3505,40.448 82.5172,39.448 83,38.5C 85.1667,37 87.3333,35.5 89.5,34C 85.6433,33.9764 81.9766,34.8097 78.5,36.5C 79.1667,35.1667 80.1667,34.1667 81.5,33.5C 86.5995,31.631 91.5995,29.4644 96.5,27C 104.186,26.4298 111.852,26.0965 119.5,26C 116.436,28.2072 114.436,31.0406 113.5,34.5 Z"/></g>
<g><path style="opacity:1" fill="#316ebc" d="M 129.5,31.5 C 130.167,31.5 130.5,31.8333 130.5,32.5C 139.704,44.586 144.037,58.2527 143.5,73.5C 141.365,75.0709 139.032,76.4043 136.5,77.5C 142.16,60.6679 136.16,52.5013 118.5,53C 107.3,56.8997 103.8,64.3997 108,75.5C 109.333,77.5 110.667,79.5 112,81.5C 113.918,82.5418 115.751,83.7085 117.5,85C 113.514,85.4988 109.514,85.6655 105.5,85.5C 100.786,67.2577 103.452,50.2577 113.5,34.5C 114.267,33.828 114.934,32.9947 115.5,32C 120.155,31.5008 124.821,31.3342 129.5,31.5 Z"/></g>
<g><path style="opacity:0.996" fill="#a3b6bf" d="M 85.5,26.5 C 85.4729,28.1993 84.8062,29.5326 83.5,30.5C 79.0669,33.0845 74.7336,35.9178 70.5,39C 68.8588,40.129 67.8588,41.629 67.5,43.5C 60.5092,48.8246 54.1759,54.8246 48.5,61.5C 47.3406,60.5442 46.1739,59.5442 45,58.5C 44,59.1667 43,59.8333 42,60.5C 40.8615,60.0109 39.6948,59.6775 38.5,59.5C 36.9382,59.2671 35.6049,58.6005 34.5,57.5C 34.461,54.911 35.461,52.911 37.5,51.5C 39.1346,53.9639 41.3013,55.9639 44,57.5C 45.1739,56.4558 46.3406,55.4558 47.5,54.5C 47.5173,56.0281 48.184,56.5281 49.5,56C 56.2291,48.272 63.8957,41.6054 72.5,36C 74.854,33.31 74.1873,32.81 70.5,34.5C 75.4555,31.9087 80.4555,29.242 85.5,26.5 Z"/></g>
<g><path style="opacity:0.996" fill="#618193" d="M 83.5,30.5 C 82.8333,31.5 82.1667,32.5 81.5,33.5C 80.1667,34.1667 79.1667,35.1667 78.5,36.5C 74.5833,38.412 70.9166,40.7454 67.5,43.5C 67.8588,41.629 68.8588,40.129 70.5,39C 74.7336,35.9178 79.0669,33.0845 83.5,30.5 Z"/></g>
<g><path style="opacity:1" fill="#17263b" d="M 82.5,41.5 C 72.8628,48.9713 64.3628,57.638 57,67.5C 56.5172,68.448 56.3505,69.448 56.5,70.5C 52.6337,68.736 48.967,66.736 45.5,64.5C 47.1436,64.1898 48.1436,63.1898 48.5,61.5C 54.1759,54.8246 60.5092,48.8246 67.5,43.5C 70.9166,40.7454 74.5833,38.412 78.5,36.5C 81.9766,34.8097 85.6433,33.9764 89.5,34C 87.3333,35.5 85.1667,37 83,38.5C 82.5172,39.448 82.3505,40.448 82.5,41.5 Z"/></g>
<g><path style="opacity:0.996" fill="#224d8e" d="M 105.5,36.5 C 104.969,38.6237 103.635,40.1237 101.5,41C 90.7488,45.2074 80.7488,50.7074 71.5,57.5C 75.7586,53.3491 80.0919,49.1825 84.5,45C 82.1088,44.3086 82.1088,43.3086 84.5,42C 91.2617,39.2149 98.2617,37.3816 105.5,36.5 Z"/></g>
<g><path style="opacity:1" fill="#eef2f4" d="M 61.5,40.5 C 55.8333,44.1667 51.1667,48.8333 47.5,54.5C 46.3406,55.4558 45.1739,56.4558 44,57.5C 41.3013,55.9639 39.1346,53.9639 37.5,51.5C 39.0908,48.5691 41.0908,45.9024 43.5,43.5C 45.4728,40.8605 47.8061,38.5272 50.5,36.5C 53.259,36.4516 56.0924,36.1183 59,35.5C 60.8921,36.6174 61.7254,38.2841 61.5,40.5 Z"/></g>
<g><path style="opacity:0.988" fill="#8699a4" d="M 47.5,54.5 C 51.1667,48.8333 55.8333,44.1667 61.5,40.5C 64.0127,37.7454 67.0127,35.7454 70.5,34.5C 74.1873,32.81 74.854,33.31 72.5,36C 63.8957,41.6054 56.2291,48.272 49.5,56C 48.184,56.5281 47.5173,56.0281 47.5,54.5 Z"/></g>
<g><path style="opacity:0.996" fill="#8aa0af" d="M 155.5,28.5 C 156.873,28.3433 158.207,28.51 159.5,29C 162.778,30.6475 165.945,32.4808 169,34.5C 169.5,34 170,33.5 170.5,33C 168.999,31.7485 167.332,30.7485 165.5,30C 164.262,29.31 164.262,28.81 165.5,28.5C 176.379,33.5338 186.045,40.3671 194.5,49C 195.448,49.4828 196.448,49.6495 197.5,49.5C 195.972,50.3092 194.306,50.9759 192.5,51.5C 185.718,47.2678 179.051,42.7678 172.5,38C 168.78,36.1401 165.114,34.3068 161.5,32.5C 161.027,31.0937 160.027,30.427 158.5,30.5C 157.29,30.0679 156.29,29.4013 155.5,28.5 Z"/></g>
<g><path style="opacity:1" fill="#1e4073" d="M 106.5,35.5 C 106.5,36.1667 106.167,36.5 105.5,36.5C 98.2617,37.3816 91.2617,39.2149 84.5,42C 82.1088,43.3086 82.1088,44.3086 84.5,45C 80.0919,49.1825 75.7586,53.3491 71.5,57.5C 68.0317,61.1405 64.6984,64.9739 61.5,69C 59.9751,70.0086 58.3084,70.5086 56.5,70.5C 56.3505,69.448 56.5172,68.448 57,67.5C 64.3628,57.638 72.8628,48.9713 82.5,41.5C 90.2131,37.4476 98.3798,34.4476 107,32.5C 107.47,33.5768 107.303,34.5768 106.5,35.5 Z"/></g>
<g><path style="opacity:1" fill="#2f6bb8" d="M 174.5,59.5 C 172.488,60.0138 170.488,60.1805 168.5,60C 161.36,52.2672 152.694,47.4339 142.5,45.5C 141.847,44.1932 141.18,42.8599 140.5,41.5C 142.766,40.7942 145.099,40.9609 147.5,42C 156.075,45.2874 164.075,49.6207 171.5,55C 173.141,56.129 174.141,57.629 174.5,59.5 Z"/></g>
<g><path style="opacity:1" fill="#2c3541" d="M 161.5,32.5 C 165.114,34.3068 168.78,36.1401 172.5,38C 179.051,42.7678 185.718,47.2678 192.5,51.5C 190.972,52.3092 189.306,52.9759 187.5,53.5C 178.833,46.5 170.167,39.5 161.5,32.5 Z"/></g>
<g><path style="opacity:0.996" fill="#324057" d="M 43.5,40.5 C 43.5,41.5 43.5,42.5 43.5,43.5C 41.0908,45.9024 39.0908,48.5691 37.5,51.5C 35.461,52.911 34.461,54.911 34.5,57.5C 32.9261,55.8984 32.2594,53.8984 32.5,51.5C 35.457,47.1754 39.1237,43.5088 43.5,40.5 Z"/></g>
<g><path style="opacity:1" fill="#18356f" d="M 130.5,32.5 C 144.121,34.873 156.788,39.7063 168.5,47C 171.75,51.0711 175.083,54.9044 178.5,58.5C 177.292,59.2341 175.959,59.5674 174.5,59.5C 174.141,57.629 173.141,56.129 171.5,55C 164.075,49.6207 156.075,45.2874 147.5,42C 145.099,40.9609 142.766,40.7942 140.5,41.5C 141.18,42.8599 141.847,44.1932 142.5,45.5C 141.414,45.62 140.747,46.2867 140.5,47.5C 144.111,55.3593 146.444,63.3593 147.5,71.5C 146.486,72.6737 145.153,73.3404 143.5,73.5C 144.037,58.2527 139.704,44.586 130.5,32.5 Z"/></g>
<g><path style="opacity:1" fill="#8699ab" d="M 220.5,48.5 C 215.016,49.8041 209.349,50.8041 203.5,51.5C 203.918,50.7784 204.584,50.2784 205.5,50C 210.464,49.0878 215.464,48.5878 220.5,48.5 Z"/></g>
<g><path style="opacity:1" fill="#16263e" d="M 158.5,30.5 C 160.027,30.427 161.027,31.0937 161.5,32.5C 170.167,39.5 178.833,46.5 187.5,53.5C 185.488,54.2283 183.488,55.0617 181.5,56C 182.094,56.4643 182.761,56.631 183.5,56.5C 181.972,57.3092 180.306,57.9759 178.5,58.5C 175.083,54.9044 171.75,51.0711 168.5,47C 156.788,39.7063 144.121,34.873 130.5,32.5C 130.5,31.8333 130.167,31.5 129.5,31.5C 128.04,29.5372 126.373,27.7038 124.5,26C 125.333,25.8333 126.167,25.6667 127,25.5C 133.126,27.3979 139.292,27.7312 145.5,26.5C 149.888,28.7492 154.221,30.0826 158.5,30.5 Z"/></g>
<g><path style="opacity:1" fill="#ecf1f4" d="M 23.5,51.5 C 36.1347,62.7871 50.1347,72.1204 65.5,79.5C 67.8355,82.1648 70.8355,83.4982 74.5,83.5C 78.6928,83.9526 82.6928,85.1192 86.5,87C 89.146,87.4974 91.8127,87.6641 94.5,87.5C 97.1709,89.1181 100.171,89.7847 103.5,89.5C 107.785,90.2949 112.119,90.6282 116.5,90.5C 119.641,91.3213 122.975,91.8213 126.5,92C 123.99,92.3763 121.657,93.2096 119.5,94.5C 120.025,95.1924 120.692,95.6924 121.5,96C 109.502,95.501 97.5023,94.6677 85.5,93.5C 84.0055,93.7092 82.8388,94.3759 82,95.5C 70.1641,88.6439 57.9975,82.1439 45.5,76C 43.2317,73.0322 40.2317,71.3655 36.5,71C 30.4504,66.0483 24.117,61.5483 17.5,57.5C 15.8712,56.3747 14.3712,55.0414 13,53.5C 12.6667,55.8333 12.3333,58.1667 12,60.5C 11.501,56.1794 11.3343,51.8461 11.5,47.5C 12.7058,44.8609 14.7058,44.0276 17.5,45C 19.7341,47.0627 21.7341,49.2294 23.5,51.5 Z"/></g>
<g><path style="opacity:1" fill="#132b60" d="M 136.5,77.5 C 131.184,79.6712 126.184,82.5045 121.5,86C 113.655,86.8223 105.989,86.6557 98.5,85.5C 100.833,85.5 103.167,85.5 105.5,85.5C 109.514,85.6655 113.514,85.4988 117.5,85C 115.751,83.7085 113.918,82.5418 112,81.5C 110.667,79.5 109.333,77.5 108,75.5C 103.8,64.3997 107.3,56.8997 118.5,53C 136.16,52.5013 142.16,60.6679 136.5,77.5 Z"/></g>
<g><path style="opacity:1" fill="#1a3a7a" d="M 142.5,45.5 C 152.694,47.4339 161.36,52.2672 168.5,60C 170.488,60.1805 172.488,60.0138 174.5,59.5C 173.71,60.4013 172.71,61.0679 171.5,61.5C 167.313,61.3947 163.313,62.228 159.5,64C 155.615,66.7245 151.615,69.2245 147.5,71.5C 146.444,63.3593 144.111,55.3593 140.5,47.5C 140.747,46.2867 141.414,45.62 142.5,45.5 Z"/></g>
<g><path style="opacity:1" fill="#7e92a5" d="M 192.5,54.5 C 190.485,55.9238 188.152,56.5905 185.5,56.5C 187.515,55.0762 189.848,54.4095 192.5,54.5 Z"/></g>
<g><path style="opacity:1" fill="#ccd8e1" d="M 238.5,53.5 C 236.39,67.1564 234.39,80.8231 232.5,94.5C 228.01,108.758 223.343,123.091 218.5,137.5C 215.476,141.727 213.476,141.393 212.5,136.5C 215.092,122.903 217.092,109.236 218.5,95.5C 219.615,102.741 220.115,109.741 220,116.5C 223.355,114.152 225.022,110.818 225,106.5C 225.667,100.5 225.667,94.5 225,88.5C 222.115,81.9433 218.781,75.61 215,69.5C 214.505,67.5273 214.338,65.5273 214.5,63.5C 221.717,63.3259 227.717,60.6593 232.5,55.5C 234.5,54.8333 236.5,54.1667 238.5,53.5 Z"/></g>
<g><path style="opacity:1" fill="#2f6ab8" d="M 65.5,74.5 C 64.5084,74.6716 63.8417,74.3382 63.5,73.5C 66.5711,67.5923 70.9044,62.759 76.5,59C 84.7197,53.3896 93.3864,48.5562 102.5,44.5C 103.167,44.8333 103.833,45.1667 104.5,45.5C 103.352,47.1487 102.019,48.6487 100.5,50C 93.7557,52.5389 87.4224,55.8723 81.5,60C 75.9513,64.7212 70.618,69.5545 65.5,74.5 Z"/></g>
<g><path style="opacity:1" fill="#e5ecf0" d="M 238.5,53.5 C 236.5,54.1667 234.5,54.8333 232.5,55.5C 230.407,56.0447 228.407,56.878 226.5,58C 221.582,58.1948 216.749,58.6948 212,59.5C 211.333,61.8333 211.333,64.1667 212,66.5C 213.987,70.9683 215.82,75.4683 217.5,80C 214.899,79.5993 212.899,78.0993 211.5,75.5C 209.628,71.3849 207.295,67.5515 204.5,64C 199.447,63.7826 194.447,63.2826 189.5,62.5C 188.255,61.0446 188.422,59.7113 190,58.5C 190.725,60.158 191.892,60.658 193.5,60C 193.041,58.0573 194.041,56.724 196.5,56C 195.833,55.6667 195.167,55.3333 194.5,55C 195.416,54.7216 196.082,54.2216 196.5,53.5C 198.701,52.4336 201.035,51.767 203.5,51.5C 209.349,50.8041 215.016,49.8041 220.5,48.5C 224.517,47.7469 228.684,47.0802 233,46.5C 237.641,46.6398 239.474,48.9732 238.5,53.5 Z"/></g>
<g><path style="opacity:1" fill="#d3dde5" d="M 11.5,47.5 C 11.3343,51.8461 11.501,56.1794 12,60.5C 12.3333,58.1667 12.6667,55.8333 13,53.5C 14.3712,55.0414 15.8712,56.3747 17.5,57.5C 16.4473,60.8515 16.4473,64.1849 17.5,67.5C 20.773,66.4149 24.1064,66.2483 27.5,67C 37.1793,76.501 48.1793,84.001 60.5,89.5C 57.6929,90.5767 54.8595,91.5767 52,92.5C 51.3333,93.5 51.3333,94.5 52,95.5C 52.6543,94.3044 53.1543,94.3044 53.5,95.5C 52.3047,96.9675 52.3047,98.4675 53.5,100C 51.8048,101.046 51.4715,102.213 52.5,103.5C 46.614,101.768 40.614,101.268 34.5,102C 34.0426,102.414 33.7093,102.914 33.5,103.5C 35.1836,104.15 36.5169,105.15 37.5,106.5C 35.8333,106.5 34.1667,106.5 32.5,106.5C 32.1188,111.18 33.1188,115.514 35.5,119.5C 36.0283,120.847 36.195,122.181 36,123.5C 33.9205,121.877 31.7538,120.377 29.5,119C 25.9749,109.535 22.4749,99.7018 19,89.5C 18.7679,90.7375 18.2679,91.7375 17.5,92.5C 16.6255,89.4651 15.6255,86.4651 14.5,83.5C 13.612,80.9455 13.2786,78.2788 13.5,75.5C 13.7062,72.5049 13.0395,69.8383 11.5,67.5C 10.4297,60.6748 10.4297,54.0081 11.5,47.5 Z"/></g>
<g><path style="opacity:1" fill="#16316c" d="M 113.5,34.5 C 103.452,50.2577 100.786,67.2577 105.5,85.5C 103.167,85.5 100.833,85.5 98.5,85.5C 93.418,84.763 88.418,83.5963 83.5,82C 77.5252,79.1908 71.5252,76.6908 65.5,74.5C 70.618,69.5545 75.9513,64.7212 81.5,60C 87.4224,55.8723 93.7557,52.5389 100.5,50C 102.019,48.6487 103.352,47.1487 104.5,45.5C 103.833,45.1667 103.167,44.8333 102.5,44.5C 93.3864,48.5562 84.7197,53.3896 76.5,59C 70.9044,62.759 66.5711,67.5923 63.5,73.5C 61.0128,72.6772 58.6794,71.6772 56.5,70.5C 58.3084,70.5086 59.9751,70.0086 61.5,69C 64.6984,64.9739 68.0317,61.1405 71.5,57.5C 80.7488,50.7074 90.7488,45.2074 101.5,41C 103.635,40.1237 104.969,38.6237 105.5,36.5C 106.167,36.5 106.5,36.1667 106.5,35.5C 108.903,35.552 111.236,35.2186 113.5,34.5 Z"/></g>
<g><path style="opacity:1" fill="#1f4487" d="M 98.5,53.5 C 99.2389,53.369 99.9056,53.5357 100.5,54C 98.9019,61.0234 98.0686,68.1901 98,75.5C 87.8566,78.3697 83.5232,74.3697 85,63.5C 88.5603,58.7561 93.0603,55.4228 98.5,53.5 Z"/></g>
<g><path style="opacity:1" fill="#5e7186" d="M 11.5,67.5 C 13.0395,69.8383 13.7062,72.5049 13.5,75.5C 12.2318,73.0948 11.5651,70.4282 11.5,67.5 Z"/></g>
<g><path style="opacity:1" fill="#dfe8ec" d="M 196.5,53.5 C 196.082,54.2216 195.416,54.7216 194.5,55C 195.167,55.3333 195.833,55.6667 196.5,56C 194.041,56.724 193.041,58.0573 193.5,60C 191.892,60.658 190.725,60.158 190,58.5C 188.422,59.7113 188.255,61.0446 189.5,62.5C 194.447,63.2826 199.447,63.7826 204.5,64C 207.295,67.5515 209.628,71.3849 211.5,75.5C 212.899,78.0993 214.899,79.5993 217.5,80C 215.82,75.4683 213.987,70.9683 212,66.5C 211.333,64.1667 211.333,61.8333 212,59.5C 216.749,58.6948 221.582,58.1948 226.5,58C 228.407,56.878 230.407,56.0447 232.5,55.5C 227.717,60.6593 221.717,63.3259 214.5,63.5C 214.338,65.5273 214.505,67.5273 215,69.5C 218.781,75.61 222.115,81.9433 225,88.5C 225.667,94.5 225.667,100.5 225,106.5C 225.022,110.818 223.355,114.152 220,116.5C 220.115,109.741 219.615,102.741 218.5,95.5C 218.741,93.1016 218.074,91.1016 216.5,89.5C 216.5,88.8333 216.5,88.1667 216.5,87.5C 216.649,86.448 216.483,85.448 216,84.5C 211.32,79.1667 207.487,73.3334 204.5,67C 198.296,66.7727 192.129,66.2727 186,65.5C 180.233,67.3837 174.899,70.0503 170,73.5C 169.5,73.3333 169,73.1667 168.5,73C 170.439,72.0922 171.439,70.5922 171.5,68.5C 163.324,69.5847 156.657,73.2514 151.5,79.5C 147.229,82.1009 143.563,85.4342 140.5,89.5C 133.267,90.2835 127.267,93.4502 122.5,99C 123.009,100.169 123.842,101.002 125,101.5C 126.915,109.828 129.748,117.828 133.5,125.5C 133.652,127.9 133.152,130.234 132,132.5C 131.292,131.619 130.458,130.953 129.5,130.5C 128.572,127.546 127.739,124.546 127,121.5C 125.458,117.914 123.625,114.581 121.5,111.5C 119.559,108.185 116.559,106.351 112.5,106C 110.5,103.667 108.5,101.333 106.5,99C 101.886,96.5977 97.719,97.0977 94,100.5C 93.2025,102.259 93.3691,103.926 94.5,105.5C 97.4517,108.1 100.618,110.433 104,112.5C 104.875,115.401 106.042,118.068 107.5,120.5C 108.746,125.834 110.746,130.834 113.5,135.5C 113.737,136.791 113.404,137.791 112.5,138.5C 108.42,127.764 101.753,119.097 92.5,112.5C 82.4148,104.09 71.7481,96.4235 60.5,89.5C 48.1793,84.001 37.1793,76.501 27.5,67C 24.1064,66.2483 20.773,66.4149 17.5,67.5C 16.4473,64.1849 16.4473,60.8515 17.5,57.5C 24.117,61.5483 30.4504,66.0483 36.5,71C 40.2317,71.3655 43.2317,73.0322 45.5,76C 57.9975,82.1439 70.1641,88.6439 82,95.5C 82.8388,94.3759 84.0055,93.7092 85.5,93.5C 97.5023,94.6677 109.502,95.501 121.5,96C 120.692,95.6924 120.025,95.1924 119.5,94.5C 121.657,93.2096 123.99,92.3763 126.5,92C 122.975,91.8213 119.641,91.3213 116.5,90.5C 119.85,90.665 123.183,90.4983 126.5,90C 136.833,82.3333 147.167,74.6667 157.5,67C 162.317,65.2341 166.983,63.4008 171.5,61.5C 172.71,61.0679 173.71,60.4013 174.5,59.5C 175.959,59.5674 177.292,59.2341 178.5,58.5C 180.306,57.9759 181.972,57.3092 183.5,56.5C 184.167,56.5 184.833,56.5 185.5,56.5C 188.152,56.5905 190.485,55.9238 192.5,54.5C 193.568,53.5655 194.901,53.2322 196.5,53.5 Z"/></g>
<g><path style="opacity:1" fill="#d2dce4" d="M 216.5,87.5 C 214.189,84.853 211.856,82.1864 209.5,79.5C 206.909,81.3799 204.409,83.3799 202,85.5C 196.472,95.2013 188.638,102.201 178.5,106.5C 175.885,106.314 173.552,104.98 171.5,102.5C 170.167,99.8333 168.833,97.1667 167.5,94.5C 170.044,93.0626 170.044,91.5626 167.5,90C 172.927,86.3424 177.594,82.509 181.5,78.5C 178.833,77.5 178.833,76.5 181.5,75.5C 183.529,76.6293 183.863,76.1293 182.5,74C 186.081,73.3252 186.081,72.1585 182.5,70.5C 177.892,71.7079 173.725,73.7079 170,76.5C 169.667,76.1667 169.333,75.8333 169,75.5C 166.024,79.1509 162.358,81.8176 158,83.5C 156.171,81.1437 154.004,79.8104 151.5,79.5C 156.657,73.2514 163.324,69.5847 171.5,68.5C 171.439,70.5922 170.439,72.0922 168.5,73C 169,73.1667 169.5,73.3333 170,73.5C 174.899,70.0503 180.233,67.3837 186,65.5C 192.129,66.2727 198.296,66.7727 204.5,67C 207.487,73.3334 211.32,79.1667 216,84.5C 216.483,85.448 216.649,86.448 216.5,87.5 Z"/></g>
<g><path style="opacity:1" fill="#2b63af" d="M 118.5,60.5 C 124.694,58.9926 129.194,60.9926 132,66.5C 132.851,71.9582 130.685,75.7915 125.5,78C 115.996,78.4892 112.163,73.9892 114,64.5C 115.397,62.9297 116.897,61.5964 118.5,60.5 Z"/></g>
<g><path style="opacity:0.996" fill="#5f7586" d="M 48.5,61.5 C 48.1436,63.1898 47.1436,64.1898 45.5,64.5C 42.3257,63.9898 39.9923,62.3231 38.5,59.5C 39.6948,59.6775 40.8615,60.0109 42,60.5C 43,59.8333 44,59.1667 45,58.5C 46.1739,59.5442 47.3406,60.5442 48.5,61.5 Z"/></g>
<g><path style="opacity:1" fill="#678099" d="M 65.5,79.5 C 69.1645,79.5018 72.1645,80.8352 74.5,83.5C 70.8355,83.4982 67.8355,82.1648 65.5,79.5 Z"/></g>
<g><path style="opacity:1" fill="#c8d4de" d="M 216.5,87.5 C 216.5,88.1667 216.5,88.8333 216.5,89.5C 212.732,91.7534 209.065,94.2534 205.5,97C 205.833,97.3333 206.167,97.6667 206.5,98C 204.655,99.128 202.655,99.628 200.5,99.5C 200.5,100.5 200.5,101.5 200.5,102.5C 199.127,102.343 197.793,102.51 196.5,103C 197.416,103.278 198.082,103.778 198.5,104.5C 194.818,104.335 191.152,104.501 187.5,105C 180.36,108.753 173.026,111.586 165.5,113.5C 164.035,108.271 161.202,103.938 157,100.5C 156.695,97.3989 155.195,94.5656 152.5,92C 148.167,89.86 144.333,90.36 141,93.5C 140.329,92.7476 139.496,92.4142 138.5,92.5C 139.167,91.5 139.833,90.5 140.5,89.5C 143.563,85.4342 147.229,82.1009 151.5,79.5C 154.004,79.8104 156.171,81.1437 158,83.5C 162.358,81.8176 166.024,79.1509 169,75.5C 169.333,75.8333 169.667,76.1667 170,76.5C 173.725,73.7079 177.892,71.7079 182.5,70.5C 186.081,72.1585 186.081,73.3252 182.5,74C 183.863,76.1293 183.529,76.6293 181.5,75.5C 178.833,76.5 178.833,77.5 181.5,78.5C 177.594,82.509 172.927,86.3424 167.5,90C 170.044,91.5626 170.044,93.0626 167.5,94.5C 168.833,97.1667 170.167,99.8333 171.5,102.5C 173.552,104.98 175.885,106.314 178.5,106.5C 188.638,102.201 196.472,95.2013 202,85.5C 204.409,83.3799 206.909,81.3799 209.5,79.5C 211.856,82.1864 214.189,84.853 216.5,87.5 Z"/></g>
<g><path style="opacity:1" fill="#0f141b" d="M 23.5,51.5 C 25.5504,51.9612 27.5504,52.6279 29.5,53.5C 30.5178,52.8075 31.5178,52.1408 32.5,51.5C 32.2594,53.8984 32.9261,55.8984 34.5,57.5C 35.6049,58.6005 36.9382,59.2671 38.5,59.5C 39.9923,62.3231 42.3257,63.9898 45.5,64.5C 48.967,66.736 52.6337,68.736 56.5,70.5C 58.6794,71.6772 61.0128,72.6772 63.5,73.5C 63.8417,74.3382 64.5084,74.6716 65.5,74.5C 71.5252,76.6908 77.5252,79.1908 83.5,82C 88.418,83.5963 93.418,84.763 98.5,85.5C 105.989,86.6557 113.655,86.8223 121.5,86C 126.184,82.5045 131.184,79.6712 136.5,77.5C 139.032,76.4043 141.365,75.0709 143.5,73.5C 145.153,73.3404 146.486,72.6737 147.5,71.5C 151.615,69.2245 155.615,66.7245 159.5,64C 163.313,62.228 167.313,61.3947 171.5,61.5C 166.983,63.4008 162.317,65.2341 157.5,67C 147.167,74.6667 136.833,82.3333 126.5,90C 123.183,90.4983 119.85,90.665 116.5,90.5C 112.119,90.6282 107.785,90.2949 103.5,89.5C 100.727,88.3428 97.7273,87.6761 94.5,87.5C 91.8127,87.6641 89.146,87.4974 86.5,87C 82.6928,85.1192 78.6928,83.9526 74.5,83.5C 72.1645,80.8352 69.1645,79.5018 65.5,79.5C 50.1347,72.1204 36.1347,62.7871 23.5,51.5 Z"/></g>
<g><path style="opacity:1" fill="#758494" d="M 94.5,87.5 C 97.7273,87.6761 100.727,88.3428 103.5,89.5C 100.171,89.7847 97.1709,89.1181 94.5,87.5 Z"/></g>
<g><path style="opacity:1" fill="#c6d2dd" d="M 60.5,89.5 C 71.7481,96.4235 82.4148,104.09 92.5,112.5C 90.5394,114.119 89.2061,116.286 88.5,119C 89.7101,120.039 90.7101,121.206 91.5,122.5C 88.5642,120.448 85.3975,118.781 82,117.5C 77.9347,119.447 73.7681,121.28 69.5,123C 68.5,123.667 67.5,123.667 66.5,123C 63.9319,118.966 62.7652,114.466 63,109.5C 59.6065,107.061 56.1065,105.061 52.5,103.5C 51.4715,102.213 51.8048,101.046 53.5,100C 52.3047,98.4675 52.3047,96.9675 53.5,95.5C 53.1543,94.3044 52.6543,94.3044 52,95.5C 51.3333,94.5 51.3333,93.5 52,92.5C 54.8595,91.5767 57.6929,90.5767 60.5,89.5 Z"/></g>
<g><path style="opacity:1" fill="#c9d5df" d="M 35.5,119.5 C 37.5576,121.927 39.3909,124.593 41,127.5C 43.4356,130.447 46.2689,132.78 49.5,134.5C 51.315,136.468 51.815,138.802 51,141.5C 49.0012,145.879 47.1679,150.212 45.5,154.5C 44.5489,155.919 44.2155,157.585 44.5,159.5C 43.0413,159.567 41.7079,159.234 40.5,158.5C 40.5,158.167 40.5,157.833 40.5,157.5C 40.1835,152.846 40.8501,148.346 42.5,144C 42.3333,143.5 42.1667,143 42,142.5C 40.9505,143.517 39.7839,143.684 38.5,143C 39.6226,141.956 40.9559,141.29 42.5,141C 38.6464,138.907 34.6464,137.074 30.5,135.5C 31.4439,133.863 30.7773,132.863 28.5,132.5C 23.9008,119.438 20.2341,106.104 17.5,92.5C 18.2679,91.7375 18.7679,90.7375 19,89.5C 22.4749,99.7018 25.9749,109.535 29.5,119C 31.7538,120.377 33.9205,121.877 36,123.5C 36.195,122.181 36.0283,120.847 35.5,119.5 Z"/></g>
<g><path style="opacity:1" fill="#c5d2dd" d="M 121.5,111.5 C 120.347,112.313 120.347,113.313 121.5,114.5C 120.066,115.23 118.9,116.23 118,117.5C 115.789,117.377 113.622,117.377 111.5,117.5C 106.972,114.364 105.639,115.364 107.5,120.5C 106.042,118.068 104.875,115.401 104,112.5C 100.618,110.433 97.4517,108.1 94.5,105.5C 93.3691,103.926 93.2025,102.259 94,100.5C 97.719,97.0977 101.886,96.5977 106.5,99C 108.5,101.333 110.5,103.667 112.5,106C 116.559,106.351 119.559,108.185 121.5,111.5 Z"/></g>
<g><path style="opacity:1" fill="#adbecd" d="M 165.5,113.5 C 160.198,117.97 155.364,122.97 151,128.5C 148.588,131.797 148.088,135.297 149.5,139C 150.788,139.239 151.788,138.739 152.5,137.5C 152.794,140.754 154.127,143.421 156.5,145.5C 156.167,145.5 155.833,145.5 155.5,145.5C 152.695,142.83 149.529,140.497 146,138.5C 139.315,129.8 133.649,120.467 129,110.5C 128.333,109.167 128.333,107.833 129,106.5C 131.535,101.454 134.702,96.7875 138.5,92.5C 139.496,92.4142 140.329,92.7476 141,93.5C 144.333,90.36 148.167,89.86 152.5,92C 155.195,94.5656 156.695,97.3989 157,100.5C 161.202,103.938 164.035,108.271 165.5,113.5 Z"/></g>
<g><path style="opacity:1" fill="#e0e8ed" d="M 52.5,103.5 C 56.1065,105.061 59.6065,107.061 63,109.5C 62.7652,114.466 63.9319,118.966 66.5,123C 67.5,123.667 68.5,123.667 69.5,123C 73.7681,121.28 77.9347,119.447 82,117.5C 85.3975,118.781 88.5642,120.448 91.5,122.5C 95.4968,126.665 99.3301,130.998 103,135.5C 105.287,138.072 106.453,141.072 106.5,144.5C 105.5,144.5 104.5,144.5 103.5,144.5C 98.5821,136.913 92.5821,130.246 85.5,124.5C 81.8945,119.119 78.2278,119.286 74.5,125C 71.0251,125.911 67.6918,127.078 64.5,128.5C 62.629,128.141 61.129,127.141 60,125.5C 58.3117,120.89 56.8117,116.223 55.5,111.5C 49.8054,109.897 44.1388,108.564 38.5,107.5C 38.5,106.833 38.1667,106.5 37.5,106.5C 36.5169,105.15 35.1836,104.15 33.5,103.5C 33.7093,102.914 34.0426,102.414 34.5,102C 40.614,101.268 46.614,101.768 52.5,103.5 Z"/></g>
<g><path style="opacity:1" fill="#d7e1e8" d="M 209.5,108.5 C 199.594,107.755 190.261,109.422 181.5,113.5C 179.447,113.402 177.78,114.069 176.5,115.5C 174.249,116.411 172.249,117.744 170.5,119.5C 166.746,121.734 163.079,124.234 159.5,127C 156.552,130.11 154.219,133.61 152.5,137.5C 151.788,138.739 150.788,139.239 149.5,139C 148.088,135.297 148.588,131.797 151,128.5C 155.364,122.97 160.198,117.97 165.5,113.5C 173.026,111.586 180.36,108.753 187.5,105C 191.152,104.501 194.818,104.335 198.5,104.5C 202.49,103.81 206.49,103.643 210.5,104C 212.043,106.045 211.71,107.545 209.5,108.5 Z"/></g>
<g><path style="opacity:1" fill="#6c859e" d="M 181.5,113.5 C 180.22,114.931 178.553,115.598 176.5,115.5C 177.78,114.069 179.447,113.402 181.5,113.5 Z"/></g>
<g><path style="opacity:1" fill="#151a28" d="M 170.5,119.5 C 172.249,117.744 174.249,116.411 176.5,115.5C 178.553,115.598 180.22,114.931 181.5,113.5C 183.92,113.708 186.253,113.374 188.5,112.5C 200.924,124.002 198.258,131.835 180.5,136C 175.714,137.158 171.381,136.325 167.5,133.5C 165.588,129.111 166.588,125.611 170.5,123C 169.829,122.014 169.829,120.847 170.5,119.5 Z"/></g>
<g><path style="opacity:1" fill="#5f7894" d="M 211.5,111.5 C 212.993,112.312 213.66,113.645 213.5,115.5C 213.714,117.942 212.714,119.608 210.5,120.5C 211.299,117.57 211.632,114.57 211.5,111.5 Z"/></g>
<g><path style="opacity:1" fill="#b8c7d5" d="M 92.5,112.5 C 101.753,119.097 108.42,127.764 112.5,138.5C 113.092,141.127 113.425,143.794 113.5,146.5C 122.188,146.368 130.855,146.202 139.5,146C 144.58,152.078 150.58,157.078 157.5,161C 155.381,161.342 155.047,162.175 156.5,163.5C 150.246,159.918 144.246,155.918 138.5,151.5C 138.5,150.833 138.167,150.5 137.5,150.5C 126.976,149.765 116.309,149.099 105.5,148.5C 105.715,146.821 105.048,145.821 103.5,145.5C 103.5,145.167 103.5,144.833 103.5,144.5C 104.5,144.5 105.5,144.5 106.5,144.5C 106.453,141.072 105.287,138.072 103,135.5C 99.3301,130.998 95.4968,126.665 91.5,122.5C 90.7101,121.206 89.7101,120.039 88.5,119C 89.2061,116.286 90.5394,114.119 92.5,112.5 Z"/></g>
<g><path style="opacity:1" fill="#5c7491" d="M 37.5,106.5 C 38.1667,106.5 38.5,106.833 38.5,107.5C 36.8333,107.5 35.1667,107.5 33.5,107.5C 33.238,108.978 33.5713,110.311 34.5,111.5C 39.6421,117.766 44.3088,124.433 48.5,131.5C 48.5569,132.609 48.8902,133.609 49.5,134.5C 46.2689,132.78 43.4356,130.447 41,127.5C 39.3909,124.593 37.5576,121.927 35.5,119.5C 33.1188,115.514 32.1188,111.18 32.5,106.5C 34.1667,106.5 35.8333,106.5 37.5,106.5 Z"/></g>
<g><path style="opacity:1" fill="#a4adb3" d="M 17.5,115.5 C 18.9994,118.342 19.3328,121.342 18.5,124.5C 17.8165,124.137 17.1499,123.804 16.5,123.5C 16.4013,120.763 16.7347,118.096 17.5,115.5 Z"/></g>
<g><path style="opacity:1" fill="#273449" d="M 17.5,113.5 C 17.5,114.167 17.5,114.833 17.5,115.5C 16.7347,118.096 16.4013,120.763 16.5,123.5C 16.1832,127.702 16.5166,131.702 17.5,135.5C 19.6616,148.507 24.3283,160.507 31.5,171.5C 38.3079,184.117 47.6412,194.45 59.5,202.5C 64.3175,206.74 69.3175,210.74 74.5,214.5C 66.0815,211.124 58.0815,206.958 50.5,202C 47.6966,200.549 45.6966,198.382 44.5,195.5C 38.9263,186.642 32.7596,177.642 26,168.5C 23.7874,164.075 21.6207,159.741 19.5,155.5C 13.657,140.755 11.657,125.422 13.5,109.5C 14.2216,109.082 14.7216,108.416 15,107.5C 15.0367,109.974 15.87,111.974 17.5,113.5 Z"/></g>
<g><path style="opacity:1" fill="#b8c7d4" d="M 121.5,111.5 C 123.625,114.581 125.458,117.914 127,121.5C 127.739,124.546 128.572,127.546 129.5,130.5C 130.442,135.284 128.775,138.617 124.5,140.5C 120.2,140.194 116.534,138.528 113.5,135.5C 110.746,130.834 108.746,125.834 107.5,120.5C 105.639,115.364 106.972,114.364 111.5,117.5C 113.622,117.377 115.789,117.377 118,117.5C 118.9,116.23 120.066,115.23 121.5,114.5C 120.347,113.313 120.347,112.313 121.5,111.5 Z"/></g>
<g><path style="opacity:1" fill="#6c839b" d="M 85.5,124.5 C 80.2673,123.267 75.934,124.767 72.5,129C 69.633,129.801 66.9664,129.634 64.5,128.5C 67.6918,127.078 71.0251,125.911 74.5,125C 78.2278,119.286 81.8945,119.119 85.5,124.5 Z"/></g>
<g><path style="opacity:1" fill="#686f76" d="M 230.5,119.5 C 231.461,121.265 231.795,123.265 231.5,125.5C 229.804,127.129 228.804,126.796 228.5,124.5C 228.796,122.597 229.463,120.93 230.5,119.5 Z"/></g>
<g><path style="opacity:1" fill="#14181e" d="M 14.5,83.5 C 15.6255,86.4651 16.6255,89.4651 17.5,92.5C 20.2341,106.104 23.9008,119.438 28.5,132.5C 31.2246,139.616 34.2246,146.616 37.5,153.5C 36.0387,152.314 34.7054,152.314 33.5,153.5C 32.8333,153.5 32.1667,153.5 31.5,153.5C 29.0241,147.557 26.3574,141.89 23.5,136.5C 23.1667,135.5 22.5,134.833 21.5,134.5C 20.7672,129.873 20.6005,125.207 21,120.5C 19.938,117.971 19.1047,115.304 18.5,112.5C 17.8933,112.624 17.56,112.957 17.5,113.5C 15.87,111.974 15.0367,109.974 15,107.5C 14.7216,108.416 14.2216,109.082 13.5,109.5C 13.7493,100.725 14.0827,92.0579 14.5,83.5 Z"/></g>
<g><path style="opacity:1" fill="#d1dde4" d="M 140.5,89.5 C 139.833,90.5 139.167,91.5 138.5,92.5C 134.702,96.7875 131.535,101.454 129,106.5C 128.333,107.833 128.333,109.167 129,110.5C 133.649,120.467 139.315,129.8 146,138.5C 149.529,140.497 152.695,142.83 155.5,145.5C 154.278,146.937 154.278,148.437 155.5,150C 154.66,151.171 153.827,152.338 153,153.5C 147.961,148.794 142.628,144.46 137,140.5C 134.286,141.683 131.453,142.349 128.5,142.5C 126.667,142.415 125.334,141.748 124.5,140.5C 128.775,138.617 130.442,135.284 129.5,130.5C 130.458,130.953 131.292,131.619 132,132.5C 133.152,130.234 133.652,127.9 133.5,125.5C 129.748,117.828 126.915,109.828 125,101.5C 123.842,101.002 123.009,100.169 122.5,99C 127.267,93.4502 133.267,90.2835 140.5,89.5 Z"/></g>
<g><path style="opacity:1" fill="#4a5e7e" d="M 210.5,110.5 C 211.167,110.5 211.5,110.833 211.5,111.5C 211.632,114.57 211.299,117.57 210.5,120.5C 208.487,124.527 206.487,128.527 204.5,132.5C 201.901,134.386 200.901,137.052 201.5,140.5C 200.359,137.36 200.192,134.027 201,130.5C 206.384,124.831 209.55,118.165 210.5,110.5 Z"/></g>
<g><path style="opacity:1" fill="#565f69" d="M 21.5,134.5 C 20.5178,133.859 19.5178,133.193 18.5,132.5C 17.6143,133.325 17.281,134.325 17.5,135.5C 16.5166,131.702 16.1832,127.702 16.5,123.5C 17.1499,123.804 17.8165,124.137 18.5,124.5C 19.3328,121.342 18.9994,118.342 17.5,115.5C 17.5,114.833 17.5,114.167 17.5,113.5C 17.56,112.957 17.8933,112.624 18.5,112.5C 19.1047,115.304 19.938,117.971 21,120.5C 20.6005,125.207 20.7672,129.873 21.5,134.5 Z"/></g>
<g><path style="opacity:1" fill="#192232" d="M 209.5,108.5 C 209.833,109.167 210.167,109.833 210.5,110.5C 209.55,118.165 206.384,124.831 201,130.5C 200.192,134.027 200.359,137.36 201.5,140.5C 201.5,141.5 201.5,142.5 201.5,143.5C 201.872,151.389 200.872,159.056 198.5,166.5C 197.5,167.833 196.5,167.833 195.5,166.5C 194.585,161.138 192.918,156.138 190.5,151.5C 189.747,149.12 188.413,147.12 186.5,145.5C 185.508,143.974 184.008,143.307 182,143.5C 175.04,145.315 167.873,145.981 160.5,145.5C 159.167,145.5 157.833,145.5 156.5,145.5C 154.127,143.421 152.794,140.754 152.5,137.5C 154.219,133.61 156.552,130.11 159.5,127C 163.079,124.234 166.746,121.734 170.5,119.5C 169.829,120.847 169.829,122.014 170.5,123C 166.588,125.611 165.588,129.111 167.5,133.5C 171.381,136.325 175.714,137.158 180.5,136C 198.258,131.835 200.924,124.002 188.5,112.5C 186.253,113.374 183.92,113.708 181.5,113.5C 190.261,109.422 199.594,107.755 209.5,108.5 Z"/></g>
<g><path style="opacity:1" fill="#1b2537" d="M 48.5,131.5 C 51.5431,134.011 53.0431,137.345 53,141.5C 53.1816,138.774 53.6816,136.107 54.5,133.5C 56.8391,134.843 59.1724,136.176 61.5,137.5C 57.0198,141.781 56.1864,146.781 59,152.5C 59.49,151.207 59.6567,149.873 59.5,148.5C 59.8333,148.5 60.1667,148.5 60.5,148.5C 60.97,152.35 61.97,156.017 63.5,159.5C 64.2164,164.341 62.8831,168.341 59.5,171.5C 57.2362,172.219 54.9029,172.552 52.5,172.5C 50.2733,170.393 48.2733,168.06 46.5,165.5C 45.5773,161.936 45.244,158.269 45.5,154.5C 47.1679,150.212 49.0012,145.879 51,141.5C 51.815,138.802 51.315,136.468 49.5,134.5C 48.8902,133.609 48.5569,132.609 48.5,131.5 Z"/></g>
<g><path style="opacity:1" fill="#d4dfe6" d="M 204.5,132.5 C 205.496,132.414 206.329,132.748 207,133.5C 207.667,140.833 207.667,148.167 207,155.5C 205.47,156.636 204.137,157.636 203,158.5C 202.826,153.316 202.326,148.316 201.5,143.5C 201.5,142.5 201.5,141.5 201.5,140.5C 200.901,137.052 201.901,134.386 204.5,132.5 Z"/></g>
<g><path style="opacity:1" fill="#adbccf" d="M 28.5,132.5 C 30.7773,132.863 31.4439,133.863 30.5,135.5C 34.6464,137.074 38.6464,138.907 42.5,141C 40.9559,141.29 39.6226,141.956 38.5,143C 39.7839,143.684 40.9505,143.517 42,142.5C 42.1667,143 42.3333,143.5 42.5,144C 40.8501,148.346 40.1835,152.846 40.5,157.5C 39.5,156.167 38.5,154.833 37.5,153.5C 34.2246,146.616 31.2246,139.616 28.5,132.5 Z"/></g>
<g><path style="opacity:0.988" fill="#112250" d="M 235.5,133.5 C 235.037,136.221 234.371,138.888 233.5,141.5C 232.542,141.953 231.708,142.619 231,143.5C 231.665,139.834 233.165,136.5 235.5,133.5 Z"/></g>
<g><path style="opacity:1" fill="#171e2e" d="M 38.5,107.5 C 44.1388,108.564 49.8054,109.897 55.5,111.5C 56.8117,116.223 58.3117,120.89 60,125.5C 61.129,127.141 62.629,128.141 64.5,128.5C 66.9664,129.634 69.633,129.801 72.5,129C 75.934,124.767 80.2673,123.267 85.5,124.5C 92.5821,130.246 98.5821,136.913 103.5,144.5C 103.5,144.833 103.5,145.167 103.5,145.5C 103.567,146.959 103.234,148.292 102.5,149.5C 98.6714,147.836 94.6714,146.669 90.5,146C 80.0149,145.469 69.6816,143.969 59.5,141.5C 59.5,143.833 59.5,146.167 59.5,148.5C 59.6567,149.873 59.49,151.207 59,152.5C 56.1864,146.781 57.0198,141.781 61.5,137.5C 59.1724,136.176 56.8391,134.843 54.5,133.5C 53.6816,136.107 53.1816,138.774 53,141.5C 53.0431,137.345 51.5431,134.011 48.5,131.5C 44.3088,124.433 39.6421,117.766 34.5,111.5C 33.5713,110.311 33.238,108.978 33.5,107.5C 35.1667,107.5 36.8333,107.5 38.5,107.5 Z"/></g>
<g><path style="opacity:1" fill="#4c535e" d="M 228.5,124.5 C 228.804,126.796 229.804,127.129 231.5,125.5C 231.817,129.702 231.483,133.702 230.5,137.5C 230.785,135.712 230.452,134.045 229.5,132.5C 227.929,133.975 226.595,135.642 225.5,137.5C 223.456,140.623 221.789,143.956 220.5,147.5C 223.32,139.756 225.987,132.089 228.5,124.5 Z"/></g>
<g><path style="opacity:1" fill="#3d5073" d="M 186.5,145.5 C 177.673,146.555 169.006,146.555 160.5,145.5C 167.873,145.981 175.04,145.315 182,143.5C 184.008,143.307 185.508,143.974 186.5,145.5 Z"/></g>
<g><path style="opacity:1" fill="#c5d4dc" d="M 113.5,135.5 C 116.534,138.528 120.2,140.194 124.5,140.5C 125.334,141.748 126.667,142.415 128.5,142.5C 131.453,142.349 134.286,141.683 137,140.5C 142.628,144.46 147.961,148.794 153,153.5C 153.827,152.338 154.66,151.171 155.5,150C 154.278,148.437 154.278,146.937 155.5,145.5C 155.833,145.5 156.167,145.5 156.5,145.5C 157.29,146.401 158.29,147.068 159.5,147.5C 160.126,150.638 161.46,153.471 163.5,156C 171.369,157.599 178.036,161.266 183.5,167C 182.956,168.947 181.623,169.78 179.5,169.5C 174.835,169.169 170.502,167.836 166.5,165.5C 165.524,166.195 164.524,166.862 163.5,167.5C 160.996,166.416 158.663,165.083 156.5,163.5C 155.047,162.175 155.381,161.342 157.5,161C 150.58,157.078 144.58,152.078 139.5,146C 130.855,146.202 122.188,146.368 113.5,146.5C 113.425,143.794 113.092,141.127 112.5,138.5C 113.404,137.791 113.737,136.791 113.5,135.5 Z"/></g>
<g><path style="opacity:1" fill="#6a849f" d="M 156.5,145.5 C 157.833,145.5 159.167,145.5 160.5,145.5C 169.006,146.555 177.673,146.555 186.5,145.5C 188.413,147.12 189.747,149.12 190.5,151.5C 188.442,149.441 186.109,147.774 183.5,146.5C 178.286,148.137 172.952,149.137 167.5,149.5C 164.514,149.711 161.847,149.044 159.5,147.5C 158.29,147.068 157.29,146.401 156.5,145.5 Z"/></g>
<g><path style="opacity:1" fill="#4e6587" d="M 102.5,149.5 C 100.978,151.333 98.9779,152.333 96.5,152.5C 87.5014,151 78.5014,149.5 69.5,148C 66.5623,146.166 63.5623,144.666 60.5,143.5C 60.5,145.167 60.5,146.833 60.5,148.5C 60.1667,148.5 59.8333,148.5 59.5,148.5C 59.5,146.167 59.5,143.833 59.5,141.5C 69.6816,143.969 80.0149,145.469 90.5,146C 94.6714,146.669 98.6714,147.836 102.5,149.5 Z"/></g>
<g><path style="opacity:1" fill="#5a6e87" d="M 228.5,146.5 C 228.655,149.716 227.655,152.383 225.5,154.5C 226.129,151.603 227.129,148.936 228.5,146.5 Z"/></g>
<g><path style="opacity:1" fill="#243249" d="M 137.5,150.5 C 138.167,150.5 138.5,150.833 138.5,151.5C 128.135,151.267 117.802,151.6 107.5,152.5C 108.263,151.732 109.263,151.232 110.5,151C 119.494,150.5 128.494,150.334 137.5,150.5 Z"/></g>
<g><path style="opacity:1" fill="#b5c6d3" d="M 216.5,89.5 C 218.074,91.1016 218.741,93.1016 218.5,95.5C 217.092,109.236 215.092,122.903 212.5,136.5C 213.476,141.393 215.476,141.727 218.5,137.5C 217.244,142.686 215.41,147.686 213,152.5C 207.667,159.833 202.333,167.167 197,174.5C 191.834,175.81 186.667,175.81 181.5,174.5C 179.162,172.96 176.495,172.294 173.5,172.5C 169.917,171.203 166.584,169.537 163.5,167.5C 164.524,166.862 165.524,166.195 166.5,165.5C 170.502,167.836 174.835,169.169 179.5,169.5C 181.623,169.78 182.956,168.947 183.5,167C 178.036,161.266 171.369,157.599 163.5,156C 161.46,153.471 160.126,150.638 159.5,147.5C 161.847,149.044 164.514,149.711 167.5,149.5C 172.952,149.137 178.286,148.137 183.5,146.5C 186.109,147.774 188.442,149.441 190.5,151.5C 192.918,156.138 194.585,161.138 195.5,166.5C 196.5,167.833 197.5,167.833 198.5,166.5C 200.872,159.056 201.872,151.389 201.5,143.5C 202.326,148.316 202.826,153.316 203,158.5C 204.137,157.636 205.47,156.636 207,155.5C 207.667,148.167 207.667,140.833 207,133.5C 206.329,132.748 205.496,132.414 204.5,132.5C 206.487,128.527 208.487,124.527 210.5,120.5C 212.714,119.608 213.714,117.942 213.5,115.5C 213.66,113.645 212.993,112.312 211.5,111.5C 211.5,110.833 211.167,110.5 210.5,110.5C 210.167,109.833 209.833,109.167 209.5,108.5C 211.71,107.545 212.043,106.045 210.5,104C 206.49,103.643 202.49,103.81 198.5,104.5C 198.082,103.778 197.416,103.278 196.5,103C 197.793,102.51 199.127,102.343 200.5,102.5C 200.5,101.5 200.5,100.5 200.5,99.5C 202.655,99.628 204.655,99.128 206.5,98C 206.167,97.6667 205.833,97.3333 205.5,97C 209.065,94.2534 212.732,91.7534 216.5,89.5 Z"/></g>
<g><path style="opacity:1" fill="#959ca4" d="M 225.5,137.5 C 225.411,146.457 222.411,154.123 216.5,160.5C 218.291,156.344 219.624,152.011 220.5,147.5C 221.789,143.956 223.456,140.623 225.5,137.5 Z"/></g>
<g><path style="opacity:1" fill="#52616f" d="M 23.5,136.5 C 26.3574,141.89 29.0241,147.557 31.5,153.5C 31.5,156.167 31.5,158.833 31.5,161.5C 27.2518,153.753 24.5851,145.419 23.5,136.5 Z"/></g>
<g><path style="opacity:1" fill="#a6b7c9" d="M 102.5,149.5 C 103.234,148.292 103.567,146.959 103.5,145.5C 105.048,145.821 105.715,146.821 105.5,148.5C 116.309,149.099 126.976,149.765 137.5,150.5C 128.494,150.334 119.494,150.5 110.5,151C 109.263,151.232 108.263,151.732 107.5,152.5C 105.772,154.226 103.772,155.559 101.5,156.5C 94.4379,156.285 87.4379,157.285 80.5,159.5C 78.939,158.653 77.439,158.986 76,160.5C 74.6012,160.499 73.1012,160.165 71.5,159.5C 69.9991,160.752 68.3325,161.752 66.5,162.5C 65.846,164.115 65.346,165.782 65,167.5C 64.8171,164.635 64.3171,161.969 63.5,159.5C 61.97,156.017 60.97,152.35 60.5,148.5C 60.5,146.833 60.5,145.167 60.5,143.5C 63.5623,144.666 66.5623,146.166 69.5,148C 78.5014,149.5 87.5014,151 96.5,152.5C 98.9779,152.333 100.978,151.333 102.5,149.5 Z"/></g>
<g><path style="opacity:1" fill="#080c12" d="M 232.5,94.5 C 234.163,95.0875 235.163,97.4208 235.5,101.5C 235.457,102.416 235.124,103.083 234.5,103.5C 234.719,102.325 234.386,101.325 233.5,100.5C 232.993,107.006 231.993,113.339 230.5,119.5C 229.463,120.93 228.796,122.597 228.5,124.5C 225.987,132.089 223.32,139.756 220.5,147.5C 214.667,159.001 208.001,170.001 200.5,180.5C 198.898,182.074 196.898,182.741 194.5,182.5C 190.547,182.464 186.714,183.131 183,184.5C 178.559,183.378 174.059,182.711 169.5,182.5C 169.512,178.554 167.512,176.887 163.5,177.5C 161.458,175.17 158.792,174.004 155.5,174C 149.341,169.017 143.008,164.184 136.5,159.5C 131.198,158.337 125.864,158.171 120.5,159C 115.586,160.961 110.92,163.128 106.5,165.5C 105.833,165.5 105.5,165.833 105.5,166.5C 103.784,166.629 102.117,166.962 100.5,167.5C 89.3548,172.995 78.1881,178.661 67,184.5C 61.3594,183.985 55.8594,182.818 50.5,181C 45.7512,177.114 42.0846,172.614 39.5,167.5C 37.5041,162.85 35.5041,158.184 33.5,153.5C 34.7054,152.314 36.0387,152.314 37.5,153.5C 38.5,154.833 39.5,156.167 40.5,157.5C 40.5,157.833 40.5,158.167 40.5,158.5C 41.7589,162.025 43.7589,165.025 46.5,167.5C 47.4486,169.777 48.7819,171.777 50.5,173.5C 51.6808,175.067 53.3474,175.901 55.5,176C 58.367,176.801 61.0336,176.634 63.5,175.5C 78.079,172.877 90.7457,166.544 101.5,156.5C 103.772,155.559 105.772,154.226 107.5,152.5C 117.802,151.6 128.135,151.267 138.5,151.5C 144.246,155.918 150.246,159.918 156.5,163.5C 158.663,165.083 160.996,166.416 163.5,167.5C 166.584,169.537 169.917,171.203 173.5,172.5C 175.905,173.768 178.572,174.435 181.5,174.5C 186.667,175.81 191.834,175.81 197,174.5C 202.333,167.167 207.667,159.833 213,152.5C 215.41,147.686 217.244,142.686 218.5,137.5C 223.343,123.091 228.01,108.758 232.5,94.5 Z"/></g>
<g><path style="opacity:1" fill="#869cb7" d="M 45.5,154.5 C 45.244,158.269 45.5773,161.936 46.5,165.5C 46.5,166.167 46.5,166.833 46.5,167.5C 43.7589,165.025 41.7589,162.025 40.5,158.5C 41.7079,159.234 43.0413,159.567 44.5,159.5C 44.2155,157.585 44.5489,155.919 45.5,154.5 Z"/></g>
<g><path style="opacity:1" fill="#afbfcb" d="M 21.5,134.5 C 22.5,134.833 23.1667,135.5 23.5,136.5C 24.5851,145.419 27.2518,153.753 31.5,161.5C 31.3284,162.492 31.6618,163.158 32.5,163.5C 32.5111,165.547 32.8444,167.547 33.5,169.5C 33.2528,170.713 32.5862,171.38 31.5,171.5C 24.3283,160.507 19.6616,148.507 17.5,135.5C 17.281,134.325 17.6143,133.325 18.5,132.5C 19.5178,133.193 20.5178,133.859 21.5,134.5 Z"/></g>
<g><path style="opacity:1" fill="#97aac0" d="M 101.5,156.5 C 90.7457,166.544 78.079,172.877 63.5,175.5C 61.1432,175.663 58.8098,175.497 56.5,175C 58.0557,174.28 59.0557,173.113 59.5,171.5C 62.8831,168.341 64.2164,164.341 63.5,159.5C 64.3171,161.969 64.8171,164.635 65,167.5C 65.346,165.782 65.846,164.115 66.5,162.5C 68.3325,161.752 69.9991,160.752 71.5,159.5C 73.1012,160.165 74.6012,160.499 76,160.5C 77.439,158.986 78.939,158.653 80.5,159.5C 87.4379,157.285 94.4379,156.285 101.5,156.5 Z"/></g>
<g><path style="opacity:1" fill="#10264b" d="M 163.5,177.5 C 164.058,178.79 165.058,179.623 166.5,180C 165.956,180.717 165.289,181.217 164.5,181.5C 163.791,180.596 162.791,180.263 161.5,180.5C 161.727,178.067 160.727,176.401 158.5,175.5C 157.5,175.5 156.5,175.5 155.5,175.5C 152.959,173.401 149.959,172.068 146.5,171.5C 146.649,170.448 146.483,169.448 146,168.5C 144.349,166.79 142.516,165.456 140.5,164.5C 138.5,163.5 136.5,162.5 134.5,161.5C 131.854,160.836 129.021,160.502 126,160.5C 122.748,160.519 119.915,161.186 117.5,162.5C 116.082,164.308 114.082,164.975 111.5,164.5C 109.784,164.629 108.117,164.962 106.5,165.5C 110.92,163.128 115.586,160.961 120.5,159C 125.864,158.171 131.198,158.337 136.5,159.5C 143.008,164.184 149.341,169.017 155.5,174C 158.792,174.004 161.458,175.17 163.5,177.5 Z"/></g>
<g><path style="opacity:1" fill="#1f4a82" d="M 134.5,161.5 C 134.5,162.167 134.167,162.5 133.5,162.5C 128.5,162.5 123.5,162.5 118.5,162.5C 118.167,162.5 117.833,162.5 117.5,162.5C 119.915,161.186 122.748,160.519 126,160.5C 129.021,160.502 131.854,160.836 134.5,161.5 Z"/></g>
<g><path style="opacity:1" fill="#132c65" d="M 134.5,161.5 C 136.5,162.5 138.5,163.5 140.5,164.5C 133.913,175.637 125.246,177.471 114.5,170C 113.242,168.259 112.242,166.426 111.5,164.5C 114.082,164.975 116.082,164.308 117.5,162.5C 117.833,162.5 118.167,162.5 118.5,162.5C 122.061,166.704 126.395,167.537 131.5,165C 132.381,164.292 133.047,163.458 133.5,162.5C 134.167,162.5 134.5,162.167 134.5,161.5 Z"/></g>
<g><path style="opacity:1" fill="#2a63ac" d="M 118.5,162.5 C 123.5,162.5 128.5,162.5 133.5,162.5C 133.047,163.458 132.381,164.292 131.5,165C 126.395,167.537 122.061,166.704 118.5,162.5 Z"/></g>
<g><path style="opacity:1" fill="#3d5274" d="M 46.5,165.5 C 48.2733,168.06 50.2733,170.393 52.5,172.5C 51.5084,172.328 50.8417,172.662 50.5,173.5C 48.7819,171.777 47.4486,169.777 46.5,167.5C 46.5,166.833 46.5,166.167 46.5,165.5 Z"/></g>
<g><path style="opacity:1" fill="#474c51" d="M 220.5,147.5 C 219.624,152.011 218.291,156.344 216.5,160.5C 214.39,161.95 213.057,163.95 212.5,166.5C 208.974,171.539 204.974,176.206 200.5,180.5C 208.001,170.001 214.667,159.001 220.5,147.5 Z"/></g>
<g><path style="opacity:1" fill="#516883" d="M 173.5,172.5 C 176.495,172.294 179.162,172.96 181.5,174.5C 178.572,174.435 175.905,173.768 173.5,172.5 Z"/></g>
<g><path style="opacity:1" fill="#384555" d="M 31.5,153.5 C 32.1667,153.5 32.8333,153.5 33.5,153.5C 35.5041,158.184 37.5041,162.85 39.5,167.5C 40.3795,170.262 41.5462,172.929 43,175.5C 46.4582,179.472 50.2916,182.805 54.5,185.5C 52.8008,185.66 51.1341,185.494 49.5,185C 42.8267,178.509 37.1601,171.342 32.5,163.5C 31.6618,163.158 31.3284,162.492 31.5,161.5C 31.5,158.833 31.5,156.167 31.5,153.5 Z"/></g>
<g><path style="opacity:1" fill="#8e979d" d="M 212.5,166.5 C 211.958,169.673 210.958,172.673 209.5,175.5C 207.4,178.104 205.067,180.604 202.5,183C 199.456,183.363 196.456,183.863 193.5,184.5C 193.833,183.833 194.167,183.167 194.5,182.5C 196.898,182.741 198.898,182.074 200.5,180.5C 204.974,176.206 208.974,171.539 212.5,166.5 Z"/></g>
<g><path style="opacity:1" fill="#263042" d="M 234.5,103.5 C 236.608,113.443 236.941,123.443 235.5,133.5C 233.165,136.5 231.665,139.834 231,143.5C 231.708,142.619 232.542,141.953 233.5,141.5C 230.898,149.374 227.732,157.04 224,164.5C 219,172.833 214,181.167 209,189.5C 204.293,194.709 199.126,199.375 193.5,203.5C 196.533,199.473 200.033,195.807 204,192.5C 204.791,191.255 205.291,189.922 205.5,188.5C 213.691,178.127 220.357,166.793 225.5,154.5C 227.655,152.383 228.655,149.716 228.5,146.5C 229.167,143.5 229.833,140.5 230.5,137.5C 231.483,133.702 231.817,129.702 231.5,125.5C 231.795,123.265 231.461,121.265 230.5,119.5C 231.993,113.339 232.993,107.006 233.5,100.5C 234.386,101.325 234.719,102.325 234.5,103.5 Z"/></g>
<g><path style="opacity:1" fill="#153164" d="M 19.5,155.5 C 21.6207,159.741 23.7874,164.075 26,168.5C 32.7596,177.642 38.9263,186.642 44.5,195.5C 32.1096,184.723 23.7763,171.389 19.5,155.5 Z"/></g>
<g><path style="opacity:1" fill="#c6d1d9" d="M 230.5,137.5 C 229.833,140.5 229.167,143.5 228.5,146.5C 227.129,148.936 226.129,151.603 225.5,154.5C 220.357,166.793 213.691,178.127 205.5,188.5C 202.5,191.167 199.5,193.833 196.5,196.5C 195.181,194.395 195.514,192.395 197.5,190.5C 201.722,188.446 204.722,185.279 206.5,181C 207.448,180.517 208.448,180.351 209.5,180.5C 209.5,178.833 209.5,177.167 209.5,175.5C 210.958,172.673 211.958,169.673 212.5,166.5C 213.057,163.95 214.39,161.95 216.5,160.5C 222.411,154.123 225.411,146.457 225.5,137.5C 226.595,135.642 227.929,133.975 229.5,132.5C 230.452,134.045 230.785,135.712 230.5,137.5 Z"/></g>
<g><path style="opacity:1" fill="#111924" d="M 39.5,167.5 C 42.0846,172.614 45.7512,177.114 50.5,181C 55.8594,182.818 61.3594,183.985 67,184.5C 78.1881,178.661 89.3548,172.995 100.5,167.5C 99.7101,168.794 98.7101,169.961 97.5,171C 93.8333,172.5 90.1667,174 86.5,175.5C 85.5713,176.689 85.238,178.022 85.5,179.5C 83.5082,179.328 81.8415,179.995 80.5,181.5C 79.8165,181.137 79.1499,180.804 78.5,180.5C 75.2041,181.973 72.2041,183.64 69.5,185.5C 64.8333,185.5 60.1667,185.5 55.5,185.5C 55.1667,185.5 54.8333,185.5 54.5,185.5C 50.2916,182.805 46.4582,179.472 43,175.5C 41.5462,172.929 40.3795,170.262 39.5,167.5 Z"/></g>
<g><path style="opacity:1" fill="#6681a0" d="M 59.5,171.5 C 59.0557,173.113 58.0557,174.28 56.5,175C 58.8098,175.497 61.1432,175.663 63.5,175.5C 61.0336,176.634 58.367,176.801 55.5,176C 53.3474,175.901 51.6808,175.067 50.5,173.5C 50.8417,172.662 51.5084,172.328 52.5,172.5C 54.9029,172.552 57.2362,172.219 59.5,171.5 Z"/></g>
<g><path style="opacity:1" fill="#205195" d="M 94.5,174.5 C 101.786,173.962 105.452,177.295 105.5,184.5C 100.673,184.059 96.0068,182.893 91.5,181C 89.5743,180.578 88.5743,179.411 88.5,177.5C 90.0532,175.615 92.0532,174.615 94.5,174.5 Z"/></g>
<g><path style="opacity:1" fill="#16356f" d="M 146.5,171.5 C 149.959,172.068 152.959,173.401 155.5,175.5C 153.615,177.311 151.281,178.478 148.5,179C 147.62,180.356 147.286,181.856 147.5,183.5C 151.511,183.498 155.178,182.332 158.5,180C 159.413,178.586 159.413,177.086 158.5,175.5C 160.727,176.401 161.727,178.067 161.5,180.5C 162.791,180.263 163.791,180.596 164.5,181.5C 155.096,189.696 144.096,194.363 131.5,195.5C 138.002,188.509 143.002,180.509 146.5,171.5 Z"/></g>
<g><path style="opacity:1" fill="#24599e" d="M 155.5,175.5 C 156.5,175.5 157.5,175.5 158.5,175.5C 159.413,177.086 159.413,178.586 158.5,180C 155.178,182.332 151.511,183.498 147.5,183.5C 147.286,181.856 147.62,180.356 148.5,179C 151.281,178.478 153.615,177.311 155.5,175.5 Z"/></g>
<g><path style="opacity:1" fill="#92a9b9" d="M 32.5,163.5 C 37.1601,171.342 42.8267,178.509 49.5,185C 51.1341,185.494 52.8008,185.66 54.5,185.5C 54.8333,185.5 55.1667,185.5 55.5,185.5C 55.5,185.833 55.5,186.167 55.5,186.5C 54.7611,186.369 54.0944,186.536 53.5,187C 56.688,188.934 58.188,191.768 58,195.5C 59.1451,196.636 60.3117,197.636 61.5,198.5C 60.3473,199.313 60.3473,200.313 61.5,201.5C 61.0431,202.298 60.3764,202.631 59.5,202.5C 47.6412,194.45 38.3079,184.117 31.5,171.5C 32.5862,171.38 33.2528,170.713 33.5,169.5C 32.8444,167.547 32.5111,165.547 32.5,163.5 Z"/></g>
<g><path style="opacity:1" fill="#163571" d="M 106.5,165.5 C 106.941,170.327 108.107,174.993 110,179.5C 114.052,184.712 117.885,190.045 121.5,195.5C 118.5,195.5 115.5,195.5 112.5,195.5C 111.07,194.463 109.403,193.796 107.5,193.5C 99.8348,190.578 93.0015,186.245 87,180.5C 86.2748,178.843 86.7748,177.843 88.5,177.5C 88.5743,179.411 89.5743,180.578 91.5,181C 96.0068,182.893 100.673,184.059 105.5,184.5C 105.452,177.295 101.786,173.962 94.5,174.5C 98.1453,171.862 101.812,169.196 105.5,166.5C 105.5,165.833 105.833,165.5 106.5,165.5 Z"/></g>
<g><path style="opacity:1" fill="#101c2d" d="M 163.5,177.5 C 167.512,176.887 169.512,178.554 169.5,182.5C 174.059,182.711 178.559,183.378 183,184.5C 186.714,183.131 190.547,182.464 194.5,182.5C 194.167,183.167 193.833,183.833 193.5,184.5C 193.167,184.5 192.833,184.5 192.5,184.5C 187.823,184.835 183.156,185.335 178.5,186C 175.561,187.546 172.894,189.379 170.5,191.5C 169.833,191.5 169.167,191.5 168.5,191.5C 159.86,194.197 150.86,196.697 141.5,199C 136.295,199.241 131.128,199.741 126,200.5C 121.172,200.408 116.339,200.075 111.5,199.5C 111.461,198.417 111.127,197.417 110.5,196.5C 110.957,195.702 111.624,195.369 112.5,195.5C 115.5,195.5 118.5,195.5 121.5,195.5C 124.731,196.782 128.064,196.782 131.5,195.5C 144.096,194.363 155.096,189.696 164.5,181.5C 165.289,181.217 165.956,180.717 166.5,180C 165.058,179.623 164.058,178.79 163.5,177.5 Z"/></g>
<g><path style="opacity:1" fill="#132b4b" d="M 105.5,166.5 C 101.812,169.196 98.1453,171.862 94.5,174.5C 92.0532,174.615 90.0532,175.615 88.5,177.5C 86.7748,177.843 86.2748,178.843 87,180.5C 93.0015,186.245 99.8348,190.578 107.5,193.5C 106.735,193.923 105.902,194.257 105,194.5C 98.8876,191.889 92.7209,190.389 86.5,190C 83.319,187.908 80.319,185.575 77.5,183C 78.2524,182.329 78.5858,181.496 78.5,180.5C 79.1499,180.804 79.8165,181.137 80.5,181.5C 81.8415,179.995 83.5082,179.328 85.5,179.5C 85.238,178.022 85.5713,176.689 86.5,175.5C 90.1667,174 93.8333,172.5 97.5,171C 98.7101,169.961 99.7101,168.794 100.5,167.5C 102.117,166.962 103.784,166.629 105.5,166.5 Z"/></g>
<g><path style="opacity:1" fill="#2d6bb5" d="M 111.5,164.5 C 112.242,166.426 113.242,168.259 114.5,170C 125.246,177.471 133.913,175.637 140.5,164.5C 142.516,165.456 144.349,166.79 146,168.5C 146.483,169.448 146.649,170.448 146.5,171.5C 143.002,180.509 138.002,188.509 131.5,195.5C 128.064,196.782 124.731,196.782 121.5,195.5C 117.885,190.045 114.052,184.712 110,179.5C 108.107,174.993 106.941,170.327 106.5,165.5C 108.117,164.962 109.784,164.629 111.5,164.5 Z"/></g>
<g><path style="opacity:0.996" fill="#586d83" d="M 56.5,186.5 C 63.0934,185.299 68.0934,187.466 71.5,193C 75.8067,196.483 80.4734,199.317 85.5,201.5C 89.265,203.289 93.265,204.789 97.5,206C 98.3574,208.019 99.6908,209.519 101.5,210.5C 92.7767,208.759 84.4433,205.926 76.5,202C 72.0161,197.922 67.0161,194.589 61.5,192C 59.6266,190.296 57.9599,188.463 56.5,186.5 Z"/></g>
<g><path style="opacity:1" fill="#334155" d="M 192.5,184.5 C 190.64,185.939 188.973,187.605 187.5,189.5C 182.519,191.324 177.852,193.657 173.5,196.5C 172.167,196.5 170.833,196.5 169.5,196.5C 169.64,198.124 168.973,199.29 167.5,200C 165.19,200.497 162.857,200.663 160.5,200.5C 163.464,199.742 166.13,198.242 168.5,196C 169.582,194.67 170.249,193.17 170.5,191.5C 172.894,189.379 175.561,187.546 178.5,186C 183.156,185.335 187.823,184.835 192.5,184.5 Z"/></g>
<g><path style="opacity:1" fill="#b0c1cb" d="M 209.5,175.5 C 209.5,177.167 209.5,178.833 209.5,180.5C 208.448,180.351 207.448,180.517 206.5,181C 204.722,185.279 201.722,188.446 197.5,190.5C 195.514,192.395 195.181,194.395 196.5,196.5C 190.686,202.302 184.02,206.969 176.5,210.5C 173.332,209.015 170.666,209.515 168.5,212C 164.176,212.582 159.843,213.082 155.5,213.5C 153.36,213.444 151.694,212.777 150.5,211.5C 150.511,209.983 151.177,208.816 152.5,208C 155.544,207.637 158.544,207.137 161.5,206.5C 160.817,208.176 159.483,208.843 157.5,208.5C 157.5,209.5 157.5,210.5 157.5,211.5C 162.187,212.256 165.853,210.756 168.5,207C 172.995,205.189 176.995,202.522 180.5,199C 186.999,196.166 192.665,192.166 197.5,187C 193.929,186.893 190.596,187.726 187.5,189.5C 188.973,187.605 190.64,185.939 192.5,184.5C 192.833,184.5 193.167,184.5 193.5,184.5C 196.456,183.863 199.456,183.363 202.5,183C 205.067,180.604 207.4,178.104 209.5,175.5 Z"/></g>
<g><path style="opacity:0.996" fill="#14263d" d="M 78.5,180.5 C 78.5858,181.496 78.2524,182.329 77.5,183C 80.319,185.575 83.319,187.908 86.5,190C 92.7209,190.389 98.8876,191.889 105,194.5C 105.902,194.257 106.735,193.923 107.5,193.5C 109.403,193.796 111.07,194.463 112.5,195.5C 111.624,195.369 110.957,195.702 110.5,196.5C 111.127,197.417 111.461,198.417 111.5,199.5C 103.217,199.015 95.2174,197.349 87.5,194.5C 81.26,192.047 75.26,189.047 69.5,185.5C 72.2041,183.64 75.2041,181.973 78.5,180.5 Z"/></g>
<g><path style="opacity:1" fill="#161c23" d="M 168.5,191.5 C 162.744,195.711 156.411,198.878 149.5,201C 143.753,201.541 138.42,203.208 133.5,206C 129.312,206.176 125.312,206.676 121.5,207.5C 121.167,207.5 120.833,207.5 120.5,207.5C 119.571,206.685 118.571,205.852 117.5,205C 110.212,203.01 102.879,201.01 95.5,199C 92.5519,197.763 89.8852,196.263 87.5,194.5C 95.2174,197.349 103.217,199.015 111.5,199.5C 116.339,200.075 121.172,200.408 126,200.5C 131.128,199.741 136.295,199.241 141.5,199C 150.86,196.697 159.86,194.197 168.5,191.5 Z"/></g>
<g><path style="opacity:0.999" fill="#262f3d" d="M 168.5,191.5 C 169.167,191.5 169.833,191.5 170.5,191.5C 170.249,193.17 169.582,194.67 168.5,196C 166.13,198.242 163.464,199.742 160.5,200.5C 154.679,202 149.012,203.666 143.5,205.5C 138.029,207.58 132.363,208.913 126.5,209.5C 124.302,209.88 122.635,209.213 121.5,207.5C 125.312,206.676 129.312,206.176 133.5,206C 138.42,203.208 143.753,201.541 149.5,201C 156.411,198.878 162.744,195.711 168.5,191.5 Z"/></g>
<g><path style="opacity:1" fill="#acbfc8" d="M 187.5,189.5 C 187.631,190.376 187.298,191.043 186.5,191.5C 183.618,192.961 180.618,194.127 177.5,195C 175.978,197.305 173.978,198.805 171.5,199.5C 171.5,200.5 171.5,201.5 171.5,202.5C 168.892,202.4 166.558,203.067 164.5,204.5C 167.688,202.068 170.688,199.401 173.5,196.5C 177.852,193.657 182.519,191.324 187.5,189.5 Z"/></g>
<g><path style="opacity:1" fill="#2e3c50" d="M 55.5,186.5 C 55.5,186.167 55.5,185.833 55.5,185.5C 60.1667,185.5 64.8333,185.5 69.5,185.5C 75.26,189.047 81.26,192.047 87.5,194.5C 89.8852,196.263 92.5519,197.763 95.5,199C 102.879,201.01 110.212,203.01 117.5,205C 118.571,205.852 119.571,206.685 120.5,207.5C 114.79,207.529 109.123,207.029 103.5,206C 97.5079,204.39 91.5079,202.89 85.5,201.5C 80.4734,199.317 75.8067,196.483 71.5,193C 68.0934,187.466 63.0934,185.299 56.5,186.5C 56.1667,186.5 55.8333,186.5 55.5,186.5 Z"/></g>
<g><path style="opacity:0.999" fill="#3f5167" d="M 173.5,196.5 C 170.688,199.401 167.688,202.068 164.5,204.5C 162.973,204.427 161.973,205.094 161.5,206.5C 158.544,207.137 155.544,207.637 152.5,208C 151.177,208.816 150.511,209.983 150.5,211.5C 148.833,212.833 147.167,214.167 145.5,215.5C 144.209,215.737 143.209,215.404 142.5,214.5C 142.5,213.833 142.5,213.167 142.5,212.5C 143.167,212.5 143.5,212.167 143.5,211.5C 145.145,210.521 146.479,209.188 147.5,207.5C 146.68,205.889 145.346,205.222 143.5,205.5C 149.012,203.666 154.679,202 160.5,200.5C 162.857,200.663 165.19,200.497 167.5,200C 168.973,199.29 169.64,198.124 169.5,196.5C 170.833,196.5 172.167,196.5 173.5,196.5 Z"/></g>
<g><path style="opacity:1" fill="#7f9aad" d="M 61.5,198.5 C 68.4822,203.141 75.4822,207.807 82.5,212.5C 82.5106,214.017 83.1772,215.184 84.5,216C 89.5896,218.218 94.5896,220.384 99.5,222.5C 95.3967,221.91 91.3967,220.91 87.5,219.5C 83.9146,216.175 79.5813,214.508 74.5,214.5C 69.3175,210.74 64.3175,206.74 59.5,202.5C 60.3764,202.631 61.0431,202.298 61.5,201.5C 60.3473,200.313 60.3473,199.313 61.5,198.5 Z"/></g>
<g><path style="opacity:1" fill="#d5e0e4" d="M 161.5,206.5 C 161.973,205.094 162.973,204.427 164.5,204.5C 166.558,203.067 168.892,202.4 171.5,202.5C 171.5,201.5 171.5,200.5 171.5,199.5C 173.978,198.805 175.978,197.305 177.5,195C 180.618,194.127 183.618,192.961 186.5,191.5C 187.298,191.043 187.631,190.376 187.5,189.5C 190.596,187.726 193.929,186.893 197.5,187C 192.665,192.166 186.999,196.166 180.5,199C 176.995,202.522 172.995,205.189 168.5,207C 165.853,210.756 162.187,212.256 157.5,211.5C 157.5,210.5 157.5,209.5 157.5,208.5C 159.483,208.843 160.817,208.176 161.5,206.5 Z"/></g>
<g><path style="opacity:1" fill="#d8e4e7" d="M 55.5,186.5 C 55.8333,186.5 56.1667,186.5 56.5,186.5C 57.9599,188.463 59.6266,190.296 61.5,192C 67.0161,194.589 72.0161,197.922 76.5,202C 84.4433,205.926 92.7767,208.759 101.5,210.5C 104.006,211.75 106.673,212.416 109.5,212.5C 114.651,213.327 119.984,213.827 125.5,214C 123.527,214.495 121.527,214.662 119.5,214.5C 120.639,217.004 121.306,219.67 121.5,222.5C 120.167,222.5 118.833,222.5 117.5,222.5C 117.5,221.833 117.167,221.5 116.5,221.5C 116.389,220.883 116.056,220.383 115.5,220C 107.67,217.806 99.6696,216.473 91.5,216C 88.2493,215.28 85.2493,214.113 82.5,212.5C 75.4822,207.807 68.4822,203.141 61.5,198.5C 60.3117,197.636 59.1451,196.636 58,195.5C 58.188,191.768 56.688,188.934 53.5,187C 54.0944,186.536 54.7611,186.369 55.5,186.5 Z"/></g>
<g><path style="opacity:0.992" fill="#303f53" d="M 205.5,188.5 C 205.291,189.922 204.791,191.255 204,192.5C 200.033,195.807 196.533,199.473 193.5,203.5C 189.281,206.694 184.947,209.86 180.5,213C 175.151,215.759 169.484,217.759 163.5,219C 154.927,225.238 145.26,227.738 134.5,226.5C 134.5,225.5 134.5,224.5 134.5,223.5C 138.371,223.815 142.038,223.482 145.5,222.5C 149.839,220.202 154.505,219.036 159.5,219C 165.279,216.25 170.946,213.416 176.5,210.5C 184.02,206.969 190.686,202.302 196.5,196.5C 199.5,193.833 202.5,191.167 205.5,188.5 Z"/></g>
<g><path style="opacity:0.996" fill="#485b71" d="M 85.5,201.5 C 91.5079,202.89 97.5079,204.39 103.5,206C 109.123,207.029 114.79,207.529 120.5,207.5C 120.833,207.5 121.167,207.5 121.5,207.5C 122.635,209.213 124.302,209.88 126.5,209.5C 125.5,210.167 124.5,210.833 123.5,211.5C 118.859,212.127 114.193,212.46 109.5,212.5C 106.673,212.416 104.006,211.75 101.5,210.5C 99.6908,209.519 98.3574,208.019 97.5,206C 93.265,204.789 89.265,203.289 85.5,201.5 Z"/></g>
<g><path style="opacity:1" fill="#89a0ae" d="M 143.5,205.5 C 145.346,205.222 146.68,205.889 147.5,207.5C 146.479,209.188 145.145,210.521 143.5,211.5C 143.5,210.167 143.5,208.833 143.5,207.5C 136.986,209.461 130.319,210.794 123.5,211.5C 124.5,210.833 125.5,210.167 126.5,209.5C 132.363,208.913 138.029,207.58 143.5,205.5 Z"/></g>
<g><path style="opacity:1" fill="#b5c8d0" d="M 143.5,211.5 C 143.5,212.167 143.167,212.5 142.5,212.5C 135.513,213.998 128.513,215.498 121.5,217C 123.458,219.003 123.791,221.169 122.5,223.5C 120.833,223.5 119.167,223.5 117.5,223.5C 117.5,223.167 117.5,222.833 117.5,222.5C 118.833,222.5 120.167,222.5 121.5,222.5C 121.306,219.67 120.639,217.004 119.5,214.5C 121.527,214.662 123.527,214.495 125.5,214C 119.984,213.827 114.651,213.327 109.5,212.5C 114.193,212.46 118.859,212.127 123.5,211.5C 130.319,210.794 136.986,209.461 143.5,207.5C 143.5,208.833 143.5,210.167 143.5,211.5 Z"/></g>
<g><path style="opacity:1" fill="#6f889b" d="M 142.5,212.5 C 142.5,213.167 142.5,213.833 142.5,214.5C 139.703,216.795 137.036,219.295 134.5,222C 130.582,223.156 126.582,223.656 122.5,223.5C 123.791,221.169 123.458,219.003 121.5,217C 128.513,215.498 135.513,213.998 142.5,212.5 Z"/></g>
<g><path style="opacity:1" fill="#4b617a" d="M 142.5,214.5 C 143.209,215.404 144.209,215.737 145.5,215.5C 143.295,217.363 141.961,219.697 141.5,222.5C 142.833,222.5 144.167,222.5 145.5,222.5C 142.038,223.482 138.371,223.815 134.5,223.5C 134.5,224.5 134.5,225.5 134.5,226.5C 133.833,226.5 133.167,226.5 132.5,226.5C 126.158,226.666 119.825,226.5 113.5,226C 112.058,225.623 111.058,224.79 110.5,223.5C 112.833,223.5 115.167,223.5 117.5,223.5C 119.167,223.5 120.833,223.5 122.5,223.5C 126.582,223.656 130.582,223.156 134.5,222C 137.036,219.295 139.703,216.795 142.5,214.5 Z"/></g>
<g><path style="opacity:1" fill="#354d6e" d="M 74.5,214.5 C 79.5813,214.508 83.9146,216.175 87.5,219.5C 86.8333,219.5 86.1667,219.5 85.5,219.5C 81.6456,218.07 77.9789,216.403 74.5,214.5 Z"/></g>
<g><path style="opacity:1" fill="#a6bdc7" d="M 82.5,212.5 C 85.2493,214.113 88.2493,215.28 91.5,216C 99.6696,216.473 107.67,217.806 115.5,220C 116.056,220.383 116.389,220.883 116.5,221.5C 114.152,221.33 111.818,220.997 109.5,220.5C 107.223,221.478 104.89,222.145 102.5,222.5C 101.5,222.5 100.5,222.5 99.5,222.5C 94.5896,220.384 89.5896,218.218 84.5,216C 83.1772,215.184 82.5106,214.017 82.5,212.5 Z"/></g>
<g><path style="opacity:1" fill="#92aab8" d="M 176.5,210.5 C 170.946,213.416 165.279,216.25 159.5,219C 154.505,219.036 149.839,220.202 145.5,222.5C 144.167,222.5 142.833,222.5 141.5,222.5C 141.961,219.697 143.295,217.363 145.5,215.5C 147.167,214.167 148.833,212.833 150.5,211.5C 151.694,212.777 153.36,213.444 155.5,213.5C 159.843,213.082 164.176,212.582 168.5,212C 170.666,209.515 173.332,209.015 176.5,210.5 Z"/></g>
<g><path style="opacity:1" fill="#7994a7" d="M 116.5,221.5 C 117.167,221.5 117.5,221.833 117.5,222.5C 117.5,222.833 117.5,223.167 117.5,223.5C 115.167,223.5 112.833,223.5 110.5,223.5C 107.615,223.806 104.948,223.473 102.5,222.5C 104.89,222.145 107.223,221.478 109.5,220.5C 111.818,220.997 114.152,221.33 116.5,221.5 Z"/></g>
<g><path style="opacity:0.998" fill="#2e3d52" d="M 85.5,219.5 C 86.1667,219.5 86.8333,219.5 87.5,219.5C 91.3967,220.91 95.3967,221.91 99.5,222.5C 100.5,222.5 101.5,222.5 102.5,222.5C 104.948,223.473 107.615,223.806 110.5,223.5C 111.058,224.79 112.058,225.623 113.5,226C 119.825,226.5 126.158,226.666 132.5,226.5C 116.116,229.156 100.449,226.823 85.5,219.5 Z"/></g>
</svg>
