<?xml version="1.0" encoding="UTF-8"?>
<!DOCTYPE svg PUBLIC "-//W3C//DTD SVG 1.1//EN" "http://www.w3.org/Graphics/SVG/1.1/DTD/svg11.dtd">
<svg xmlns="http://www.w3.org/2000/svg" version="1.1" width="250px" height="239px" style="shape-rendering:geometricPrecision; text-rendering:geometricPrecision; image-rendering:optimizeQuality; fill-rule:evenodd; clip-rule:evenodd" xmlns:xlink="http://www.w3.org/1999/xlink">
<g><path style="opacity:0.445" fill="#020203" d="M 110.5,-0.5 C 111.833,-0.5 113.167,-0.5 114.5,-0.5C 130.019,1.39712 145.685,3.23045 161.5,5C 166.256,6.0224 170.923,7.35573 175.5,9C 184.167,14.3333 192.833,19.6667 201.5,25C 207.018,29.6842 212.018,34.8508 216.5,40.5C 226.206,41.1073 235.873,41.9407 245.5,43C 246,43.5 246.5,44 247,44.5C 247.874,48.9649 248.707,53.2983 249.5,57.5C 249.5,60.1667 249.5,62.8333 249.5,65.5C 247.447,76.0849 245.114,86.7515 242.5,97.5C 247.491,129.046 241.657,158.379 225,185.5C 219.211,193.291 213.044,200.791 206.5,208C 201.546,211.285 196.88,214.952 192.5,219C 186.737,222.548 180.737,225.548 174.5,228C 173.382,229.074 172.382,230.24 171.5,231.5C 156.948,235.39 142.281,237.723 127.5,238.5C 126.167,238.5 124.833,238.5 123.5,238.5C 83.4255,237.379 50.5921,221.379 25,190.5C 17.0759,177.654 11.0759,163.987 7,149.5C 4.42483,137.922 3.92483,126.255 5.5,114.5C 3.38386,98.3714 1.38386,82.3714 -0.5,66.5C -0.5,61.1667 -0.5,55.8333 -0.5,50.5C 0.112352,44.0475 3.77902,40.2142 10.5,39C 13.4262,38.7822 16.2595,38.2822 19,37.5C 21.7405,38.2822 24.5738,38.7822 27.5,39C 28.3333,39.8333 29.1667,40.6667 30,41.5C 32.6443,38.769 35.1443,35.9357 37.5,33C 46.36,28.1455 54.6934,22.4789 62.5,16C 66.5,13.6667 70.5,11.3333 74.5,9C 86.3918,4.99503 98.3918,1.82836 110.5,-0.5 Z"/></g>
<g><path style="opacity:0.956" fill="#6d6d6d" d="M 115.5,6.5 C 118.314,5.83533 121.314,5.50199 124.5,5.5C 129.424,5.35407 134.091,6.02074 138.5,7.5C 130.842,7.0135 123.175,6.68017 115.5,6.5 Z"/></g>
<g><path style="opacity:0.976" fill="#5b5c5e" d="M 114.5,6.5 C 106.396,7.59315 98.3961,9.59315 90.5,12.5C 97.7127,7.88327 105.713,5.88327 114.5,6.5 Z"/></g>
<g><path style="opacity:1" fill="#f8fafa" d="M 149.5,10.5 C 171.561,16.2883 190.394,27.6216 206,44.5C 206.483,45.448 206.649,46.448 206.5,47.5C 203.261,47.4129 200.261,48.0795 197.5,49.5C 196.448,49.6495 195.448,49.4828 194.5,49C 183.773,37.763 171.106,29.5963 156.5,24.5C 152.14,21.9306 147.473,19.9306 142.5,18.5C 135.322,17.8334 127.989,17.1667 120.5,16.5C 125.755,15.1299 131.088,14.1299 136.5,13.5C 142.901,15.7269 149.401,17.7269 156,19.5C 157.257,19.1501 157.591,18.4835 157,17.5C 153.858,15.6855 151.025,13.5188 148.5,11C 148.728,10.6012 149.062,10.4346 149.5,10.5 Z"/></g>
<g><path style="opacity:1" fill="#e3e5e7" d="M 114.5,6.5 C 114.833,6.5 115.167,6.5 115.5,6.5C 123.175,6.68017 130.842,7.0135 138.5,7.5C 140.167,7.5 141.833,7.5 143.5,7.5C 145.5,8.5 147.5,9.5 149.5,10.5C 149.062,10.4346 148.728,10.6012 148.5,11C 151.025,13.5188 153.858,15.6855 157,17.5C 157.591,18.4835 157.257,19.1501 156,19.5C 149.401,17.7269 142.901,15.7269 136.5,13.5C 131.088,14.1299 125.755,15.1299 120.5,16.5C 127.989,17.1667 135.322,17.8334 142.5,18.5C 131.828,18.3335 121.161,18.5002 110.5,19C 104.332,20.1818 98.3318,21.6818 92.5,23.5C 90.4589,22.293 89.1255,20.6263 88.5,18.5C 88.5,16.5 88.5,14.5 88.5,12.5C 89.1667,12.5 89.8333,12.5 90.5,12.5C 98.3961,9.59315 106.396,7.59315 114.5,6.5 Z"/></g>
<g><path style="opacity:1" fill="#b5b7b9" d="M 88.5,12.5 C 88.5,14.5 88.5,16.5 88.5,18.5C 87.5326,17.1938 86.1993,16.5271 84.5,16.5C 84.7733,18.451 84.1066,19.951 82.5,21C 83.3805,21.7083 84.0472,22.5416 84.5,23.5C 80.6273,23.0273 76.9606,22.0273 73.5,20.5C 76.0903,19.2508 78.4236,17.5841 80.5,15.5C 82.9535,13.9402 85.6202,12.9402 88.5,12.5 Z"/></g>
<g><path style="opacity:0.997" fill="#8d8d8d" d="M 156.5,24.5 C 171.106,29.5963 183.773,37.763 194.5,49C 195.448,49.4828 196.448,49.6495 197.5,49.5C 195.863,50.3796 194.03,51.0463 192,51.5C 190.594,50.5862 189.094,49.9195 187.5,49.5C 186.71,48.2058 185.71,47.0391 184.5,46C 176.949,42.0626 169.616,37.8959 162.5,33.5C 159.765,30.7989 156.431,29.1322 152.5,28.5C 152.5,28.1667 152.5,27.8333 152.5,27.5C 155.049,27.3874 157.382,28.0541 159.5,29.5C 159.833,29.1667 160.167,28.8333 160.5,28.5C 159.335,27.4164 158.002,26.5831 156.5,26C 155.262,25.31 155.262,24.81 156.5,24.5 Z"/></g>
<g><path style="opacity:1" fill="#53555a" d="M 80.5,15.5 C 78.4236,17.5841 76.0903,19.2508 73.5,20.5C 59.0663,27.9284 47.0663,38.2617 37.5,51.5C 35.461,52.911 34.461,54.911 34.5,57.5C 33.4749,56.6261 32.8082,55.4595 32.5,54C 33.4138,52.5936 34.0805,51.0936 34.5,49.5C 44.6466,37.2435 56.6466,27.0769 70.5,19C 73.7478,17.5405 77.0812,16.3738 80.5,15.5 Z"/></g>
<g><path style="opacity:0.996" fill="#a3a4a5" d="M 88.5,18.5 C 89.1255,20.6263 90.4589,22.293 92.5,23.5C 98.3318,21.6818 104.332,20.1818 110.5,19C 121.161,18.5002 131.828,18.3335 142.5,18.5C 147.473,19.9306 152.14,21.9306 156.5,24.5C 155.262,24.81 155.262,25.31 156.5,26C 158.002,26.5831 159.335,27.4164 160.5,28.5C 160.167,28.8333 159.833,29.1667 159.5,29.5C 157.382,28.0541 155.049,27.3874 152.5,27.5C 148.676,25.8377 144.676,24.6711 140.5,24C 133.133,23.7266 125.8,23.2266 118.5,22.5C 108.045,22.1556 97.7113,22.8223 87.5,24.5C 87.762,25.9778 87.4287,27.3112 86.5,28.5C 79.0494,32.5476 72.3828,37.5476 66.5,43.5C 63.5271,45.8062 60.8605,48.4728 58.5,51.5C 55.8333,54.1667 53.1667,56.8333 50.5,59.5C 49.1054,61.0544 48.4387,60.721 48.5,58.5C 49.0909,56.7338 49.9242,55.0672 51,53.5C 58.5566,46.6423 66.3899,40.1423 74.5,34C 73.1807,33.805 71.8474,33.9717 70.5,34.5C 75.5641,31.471 80.8974,28.8043 86.5,26.5C 86.7148,24.8212 86.0481,23.8212 84.5,23.5C 84.0472,22.5416 83.3805,21.7083 82.5,21C 84.1066,19.951 84.7733,18.451 84.5,16.5C 86.1993,16.5271 87.5326,17.1938 88.5,18.5 Z"/></g>
<g><path style="opacity:1" fill="#9a101c" d="M 118.5,22.5 C 125.8,23.2266 133.133,23.7266 140.5,24C 144.676,24.6711 148.676,25.8377 152.5,27.5C 152.5,27.8333 152.5,28.1667 152.5,28.5C 146.988,26.8766 141.322,26.2099 135.5,26.5C 131.815,26.1046 128.148,25.9379 124.5,26C 126.373,27.7038 128.04,29.5372 129.5,31.5C 124.821,31.3342 120.155,31.5008 115.5,32C 114.934,32.9947 114.267,33.828 113.5,34.5C 113.5,33.8333 113.5,33.1667 113.5,32.5C 115.294,30.2034 117.294,28.0367 119.5,26C 117.071,25.2967 114.738,25.4634 112.5,26.5C 107.833,26.5 103.167,26.5 98.5,26.5C 100.562,25.2237 102.896,24.3903 105.5,24C 110.019,23.8247 114.353,23.3247 118.5,22.5 Z"/></g>
<g><path style="opacity:1" fill="#400408" d="M 113.5,32.5 C 111.554,32.8072 109.887,32.8072 108.5,32.5C 109.467,30.2099 110.8,28.2099 112.5,26.5C 114.738,25.4634 117.071,25.2967 119.5,26C 117.294,28.0367 115.294,30.2034 113.5,32.5 Z"/></g>
<g><path style="opacity:0.996" fill="#676a6e" d="M 118.5,22.5 C 114.353,23.3247 110.019,23.8247 105.5,24C 102.896,24.3903 100.562,25.2237 98.5,26.5C 92.1578,28.1709 86.1578,30.6709 80.5,34C 78.3825,35.0491 76.7158,36.5491 75.5,38.5C 72.883,39.7859 70.5496,41.4525 68.5,43.5C 67.8333,43.5 67.1667,43.5 66.5,43.5C 72.3828,37.5476 79.0494,32.5476 86.5,28.5C 87.4287,27.3112 87.762,25.9778 87.5,24.5C 97.7113,22.8223 108.045,22.1556 118.5,22.5 Z"/></g>
<g><path style="opacity:1" fill="#5e080f" d="M 98.5,26.5 C 103.167,26.5 107.833,26.5 112.5,26.5C 110.8,28.2099 109.467,30.2099 108.5,32.5C 109.887,32.8072 111.554,32.8072 113.5,32.5C 113.5,33.1667 113.5,33.8333 113.5,34.5C 111.254,34.9361 109.087,35.6028 107,36.5C 107,35.1667 107,33.8333 107,32.5C 100.672,33.9549 94.5052,35.7882 88.5,38C 87.0161,38.6622 85.6828,39.4955 84.5,40.5C 83.6971,39.5768 83.5304,38.5768 84,37.5C 86.087,36.2062 88.2537,35.0395 90.5,34C 91.6956,33.3457 91.6956,32.8457 90.5,32.5C 87.6919,33.9696 84.6919,34.8029 81.5,35C 79.6089,36.4424 77.6089,37.6091 75.5,38.5C 76.7158,36.5491 78.3825,35.0491 80.5,34C 86.1578,30.6709 92.1578,28.1709 98.5,26.5 Z"/></g>
<g><path style="opacity:1" fill="#6a0710" d="M 135.5,26.5 C 141.322,26.2099 146.988,26.8766 152.5,28.5C 156.431,29.1322 159.765,30.7989 162.5,33.5C 160.94,33.5191 159.44,33.8524 158,34.5C 150.414,31.5784 142.914,28.9117 135.5,26.5 Z"/></g>
<g><path style="opacity:0.998" fill="#525458" d="M 143.5,7.5 C 170.291,11.4786 192.791,23.4786 211,43.5C 211.483,44.448 211.649,45.448 211.5,46.5C 209.784,46.6287 208.117,46.962 206.5,47.5C 206.649,46.448 206.483,45.448 206,44.5C 190.394,27.6216 171.561,16.2883 149.5,10.5C 147.5,9.5 145.5,8.5 143.5,7.5 Z"/></g>
<g><path style="opacity:1" fill="#ebeeef" d="M 73.5,20.5 C 76.9606,22.0273 80.6273,23.0273 84.5,23.5C 86.0481,23.8212 86.7148,24.8212 86.5,26.5C 80.8974,28.8043 75.5641,31.471 70.5,34.5C 64.4823,37.3465 59.149,41.1798 54.5,46C 51.3532,49.9812 48.0199,53.8145 44.5,57.5C 41.4867,56.1435 39.1533,54.1435 37.5,51.5C 47.0663,38.2617 59.0663,27.9284 73.5,20.5 Z"/></g>
<g><path style="opacity:1" fill="#40080c" d="M 84.5,40.5 C 73.8207,48.0131 64.654,57.0131 57,67.5C 56.5172,68.448 56.3505,69.448 56.5,70.5C 53.1667,68.8333 49.8333,67.1667 46.5,65.5C 48.8075,64.2367 50.1408,62.2367 50.5,59.5C 53.1667,56.8333 55.8333,54.1667 58.5,51.5C 62.1274,49.2065 65.4607,46.5398 68.5,43.5C 70.5496,41.4525 72.883,39.7859 75.5,38.5C 77.6089,37.6091 79.6089,36.4424 81.5,35C 84.6919,34.8029 87.6919,33.9696 90.5,32.5C 91.6956,32.8457 91.6956,33.3457 90.5,34C 88.2537,35.0395 86.087,36.2062 84,37.5C 83.5304,38.5768 83.6971,39.5768 84.5,40.5 Z"/></g>
<g><path style="opacity:0.986" fill="#8e8e8e" d="M 50.5,59.5 C 50.1408,62.2367 48.8075,64.2367 46.5,65.5C 42.228,63.2256 38.228,60.5589 34.5,57.5C 34.461,54.911 35.461,52.911 37.5,51.5C 39.1533,54.1435 41.4867,56.1435 44.5,57.5C 48.0199,53.8145 51.3532,49.9812 54.5,46C 59.149,41.1798 64.4823,37.3465 70.5,34.5C 71.8474,33.9717 73.1807,33.805 74.5,34C 66.3899,40.1423 58.5566,46.6423 51,53.5C 49.9242,55.0672 49.0909,56.7338 48.5,58.5C 48.4387,60.721 49.1054,61.0544 50.5,59.5 Z"/></g>
<g><path style="opacity:1" fill="#dc0b20" d="M 129.5,31.5 C 130.222,32.5511 131.222,33.2178 132.5,33.5C 135.321,39.8118 138.155,46.1451 141,52.5C 142.883,59.3754 143.716,66.3754 143.5,73.5C 141.537,74.8202 139.537,76.1535 137.5,77.5C 137.167,77.5 136.833,77.5 136.5,77.5C 141.975,60.1443 135.642,51.9776 117.5,53C 108.027,56.7788 104.527,63.6122 107,73.5C 108.667,76.1667 110.333,78.8333 112,81.5C 114.185,82.6695 116.351,83.8362 118.5,85C 114.179,85.499 109.846,85.6657 105.5,85.5C 100.786,67.2577 103.452,50.2577 113.5,34.5C 114.267,33.828 114.934,32.9947 115.5,32C 120.155,31.5008 124.821,31.3342 129.5,31.5 Z"/></g>
<g><path style="opacity:1" fill="#47090e" d="M 135.5,26.5 C 142.914,28.9117 150.414,31.5784 158,34.5C 159.44,33.8524 160.94,33.5191 162.5,33.5C 169.616,37.8959 176.949,42.0626 184.5,46C 185.71,47.0391 186.71,48.2058 187.5,49.5C 188.626,50.8583 188.626,52.1916 187.5,53.5C 184.596,54.8772 181.596,55.8772 178.5,56.5C 178.167,56.5 177.833,56.5 177.5,56.5C 173.06,52.4648 168.727,48.2981 164.5,44C 154.167,38.7209 143.5,35.2209 132.5,33.5C 131.222,33.2178 130.222,32.5511 129.5,31.5C 128.04,29.5372 126.373,27.7038 124.5,26C 128.148,25.9379 131.815,26.1046 135.5,26.5 Z"/></g>
<g><path style="opacity:1" fill="#93273c" d="M 66.5,43.5 C 67.1667,43.5 67.8333,43.5 68.5,43.5C 65.4607,46.5398 62.1274,49.2065 58.5,51.5C 60.8605,48.4728 63.5271,45.8062 66.5,43.5 Z"/></g>
<g><path style="opacity:1" fill="#d6091e" d="M 174.5,57.5 C 172.819,59.0075 170.819,60.0075 168.5,60.5C 166,57.1675 163,54.3342 159.5,52C 152.563,49.8609 146.23,46.6942 140.5,42.5C 140.369,41.6236 140.702,40.9569 141.5,40.5C 153.756,43.794 164.756,49.4607 174.5,57.5 Z"/></g>
<g><path style="opacity:1" fill="#7d0404" d="M 113.5,34.5 C 103.452,50.2577 100.786,67.2577 105.5,85.5C 99.7551,85.7889 94.0884,85.2889 88.5,84C 80.9528,80.3238 73.2861,77.1571 65.5,74.5C 75.0533,63.4676 86.72,55.3009 100.5,50C 101.667,48.8333 102.833,47.6667 104,46.5C 104.688,45.6683 104.521,45.0016 103.5,44.5C 89.841,49.749 77.6743,57.4157 67,67.5C 65.6063,69.3875 64.4396,71.3875 63.5,73.5C 60.9369,72.9117 58.6036,71.9117 56.5,70.5C 56.3505,69.448 56.5172,68.448 57,67.5C 64.654,57.0131 73.8207,48.0131 84.5,40.5C 85.6828,39.4955 87.0161,38.6622 88.5,38C 94.5052,35.7882 100.672,33.9549 107,32.5C 107,33.8333 107,35.1667 107,36.5C 109.087,35.6028 111.254,34.9361 113.5,34.5 Z"/></g>
<g><path style="opacity:1" fill="#a80610" d="M 100.5,36.5 C 102.288,36.2148 103.955,36.5481 105.5,37.5C 105.291,38.086 104.957,38.586 104.5,39C 92.9453,44.2718 81.9453,50.2718 71.5,57C 77.8846,51.2761 84.2179,45.6094 90.5,40C 94.0037,39.0136 97.337,37.8469 100.5,36.5 Z"/></g>
<g><path style="opacity:1" fill="#a7aab0" d="M 227.5,47.5 C 218.656,49.4037 209.656,51.0704 200.5,52.5C 209.04,49.1324 218.04,47.4658 227.5,47.5 Z"/></g>
<g><path style="opacity:1" fill="#6f0402" d="M 136.5,77.5 C 131.671,79.4697 126.671,81.303 121.5,83C 120.167,83.6667 120.167,84.3333 121.5,85C 117.637,86.3537 113.637,86.8537 109.5,86.5C 107.901,86.7678 106.568,86.4345 105.5,85.5C 109.846,85.6657 114.179,85.499 118.5,85C 116.351,83.8362 114.185,82.6695 112,81.5C 110.333,78.8333 108.667,76.1667 107,73.5C 104.527,63.6122 108.027,56.7788 117.5,53C 135.642,51.9776 141.975,60.1443 136.5,77.5 Z"/></g>
<g><path style="opacity:1" fill="#8b0303" d="M 140.5,42.5 C 146.23,46.6942 152.563,49.8609 159.5,52C 163,54.3342 166,57.1675 168.5,60.5C 168.5,60.8333 168.5,61.1667 168.5,61.5C 165.474,62.1736 162.474,63.0069 159.5,64C 156.444,65.8556 153.444,67.6889 150.5,69.5C 149.153,68.8288 147.986,68.8288 147,69.5C 146.435,61.808 144.268,54.6413 140.5,48C 141.673,46.1739 141.673,44.3405 140.5,42.5 Z"/></g>
<g><path style="opacity:1" fill="#7c0303" d="M 132.5,33.5 C 143.5,35.2209 154.167,38.7209 164.5,44C 168.727,48.2981 173.06,52.4648 177.5,56.5C 176.609,57.1098 175.609,57.4431 174.5,57.5C 164.756,49.4607 153.756,43.794 141.5,40.5C 140.702,40.9569 140.369,41.6236 140.5,42.5C 141.673,44.3405 141.673,46.1739 140.5,48C 144.268,54.6413 146.435,61.808 147,69.5C 147.986,68.8288 149.153,68.8288 150.5,69.5C 148.664,71.588 146.331,72.9213 143.5,73.5C 143.716,66.3754 142.883,59.3754 141,52.5C 138.155,46.1451 135.321,39.8118 132.5,33.5 Z"/></g>
<g><path style="opacity:1" fill="#e8ebee" d="M 238.5,53.5 C 230.107,57.4464 221.274,59.4464 212,59.5C 211.356,63.1405 211.856,66.6405 213.5,70C 216.501,75.0016 219.501,80.0016 222.5,85C 221.929,86.2051 221.262,87.3717 220.5,88.5C 216.794,82.9789 212.961,77.6455 209,72.5C 208.171,68.8388 206.671,65.5054 204.5,62.5C 200.623,61.551 196.79,60.551 193,59.5C 194.614,57.4752 195.781,55.4752 196.5,53.5C 197.568,52.5655 198.901,52.2322 200.5,52.5C 209.656,51.0704 218.656,49.4037 227.5,47.5C 230.772,46.1492 234.106,46.3159 237.5,48C 238.406,49.6995 238.739,51.5328 238.5,53.5 Z"/></g>
<g><path style="opacity:1" fill="#171316" d="M 34.5,49.5 C 34.0805,51.0936 33.4138,52.5936 32.5,54C 32.8082,55.4595 33.4749,56.6261 34.5,57.5C 38.228,60.5589 42.228,63.2256 46.5,65.5C 49.8333,67.1667 53.1667,68.8333 56.5,70.5C 58.6036,71.9117 60.9369,72.9117 63.5,73.5C 63.8417,74.3382 64.5084,74.6716 65.5,74.5C 73.2861,77.1571 80.9528,80.3238 88.5,84C 94.0884,85.2889 99.7551,85.7889 105.5,85.5C 106.568,86.4345 107.901,86.7678 109.5,86.5C 118.119,89.1334 125.619,87.1334 132,80.5C 132.718,81.4506 133.551,81.6172 134.5,81C 136.063,80.2411 137.063,79.0744 137.5,77.5C 139.537,76.1535 141.537,74.8202 143.5,73.5C 146.331,72.9213 148.664,71.588 150.5,69.5C 153.444,67.6889 156.444,65.8556 159.5,64C 162.474,63.0069 165.474,62.1736 168.5,61.5C 168.5,61.8333 168.5,62.1667 168.5,62.5C 164.128,63.9449 160.128,65.9449 156.5,68.5C 146.397,75.4229 136.397,82.5896 126.5,90C 119.833,90.6667 113.167,90.6667 106.5,90C 99.9608,88.2231 93.2941,87.2231 86.5,87C 84.3594,86.4275 82.3594,85.5942 80.5,84.5C 75.4995,82.057 70.1662,80.3904 64.5,79.5C 51.6761,72.3592 39.3427,64.3592 27.5,55.5C 28.2389,55.631 28.9056,55.4643 29.5,55C 26.7605,53.9503 25.2605,52.117 25,49.5C 26.3513,51.019 27.8513,52.3523 29.5,53.5C 31.1856,52.1431 32.8523,50.8098 34.5,49.5 Z"/></g>
<g><path style="opacity:1" fill="#373e63" d="M 177.5,56.5 C 177.833,56.5 178.167,56.5 178.5,56.5C 178.5,57.1667 178.5,57.8333 178.5,58.5C 175.469,60.5144 172.135,61.8477 168.5,62.5C 168.5,62.1667 168.5,61.8333 168.5,61.5C 168.5,61.1667 168.5,60.8333 168.5,60.5C 170.819,60.0075 172.819,59.0075 174.5,57.5C 175.609,57.4431 176.609,57.1098 177.5,56.5 Z"/></g>
<g><path style="opacity:1" fill="#9d0407" d="M 98.5,53.5 C 99.2389,53.369 99.9056,53.5357 100.5,54C 99.8095,55.0674 99.3095,56.2341 99,57.5C 98.8303,63.5275 98.3303,69.5275 97.5,75.5C 95.5,76.1667 93.5,76.8333 91.5,77.5C 89.4235,75.7123 87.2568,74.0456 85,72.5C 84.3333,69.5 84.3333,66.5 85,63.5C 87.2634,60.114 90.0968,57.2807 93.5,55C 95.3817,54.8019 97.0484,54.3019 98.5,53.5 Z"/></g>
<g><path style="opacity:1" fill="#da0a1f" d="M 65.5,74.5 C 64.5084,74.6716 63.8417,74.3382 63.5,73.5C 64.4396,71.3875 65.6063,69.3875 67,67.5C 77.6743,57.4157 89.841,49.749 103.5,44.5C 104.521,45.0016 104.688,45.6683 104,46.5C 102.833,47.6667 101.667,48.8333 100.5,50C 86.72,55.3009 75.0533,63.4676 65.5,74.5 Z"/></g>
<g><path style="opacity:1" fill="#cd0819" d="M 118.5,60.5 C 124.694,58.9926 129.194,60.9926 132,66.5C 132.851,71.9582 130.685,75.7915 125.5,78C 115.996,78.4892 112.163,73.9892 114,64.5C 115.397,62.9297 116.897,61.5964 118.5,60.5 Z"/></g>
<g><path style="opacity:1" fill="#d4d7dc" d="M 11.5,46.5 C 11.3342,51.1785 11.5008,55.8452 12,60.5C 12.3333,57.8333 12.6667,55.1667 13,52.5C 13.9533,54.4552 15.2866,56.1218 17,57.5C 16.347,60.8103 16.5137,64.1436 17.5,67.5C 20.773,66.4149 24.1064,66.2483 27.5,67C 35.9599,75.6402 45.6266,82.4735 56.5,87.5C 54.8621,88.1589 53.1955,88.8256 51.5,89.5C 50.1667,91.5 48.5,93.1667 46.5,94.5C 47.0253,95.1924 47.6919,95.6924 48.5,96C 47.6669,98.0811 47.6669,100.248 48.5,102.5C 43.8602,101.603 39.1935,101.436 34.5,102C 34.0426,102.414 33.7093,102.914 33.5,103.5C 34.9014,104.521 36.2347,105.521 37.5,106.5C 35.8333,106.5 34.1667,106.5 32.5,106.5C 32.6129,111.837 33.9463,116.837 36.5,121.5C 36.0217,124.278 37.0217,126.278 39.5,127.5C 38.3717,128.262 37.2051,128.929 36,129.5C 31.7072,127.304 29.2072,123.804 28.5,119C 26.892,118.342 25.7253,118.842 25,120.5C 24.3162,119.216 24.4829,118.049 25.5,117C 23.3424,115.688 23.0091,114.022 24.5,112C 23.2729,108.596 22.2729,105.096 21.5,101.5C 21.8178,100.353 22.4844,99.5194 23.5,99C 21.9409,95.6063 20.6076,92.1063 19.5,88.5C 18.7189,89.7287 18.2189,91.062 18,92.5C 17.9005,90.3474 17.0672,88.6808 15.5,87.5C 15.0479,83.4543 14.3813,79.4543 13.5,75.5C 13.7062,72.5049 13.0395,69.8383 11.5,67.5C 10.4123,60.3421 10.4123,53.3421 11.5,46.5 Z"/></g>
<g><path style="opacity:1" fill="#e5e9ec" d="M 27.5,55.5 C 39.3427,64.3592 51.6761,72.3592 64.5,79.5C 69.0521,83.4313 74.3854,85.0979 80.5,84.5C 82.3594,85.5942 84.3594,86.4275 86.5,87C 93.2941,87.2231 99.9608,88.2231 106.5,90C 113.167,90.6667 119.833,90.6667 126.5,90C 136.397,82.5896 146.397,75.4229 156.5,68.5C 160.245,67.2898 161.245,68.6232 159.5,72.5C 151.395,77.7703 144.395,84.2703 138.5,92C 132.074,90.5355 127.074,92.7022 123.5,98.5C 125.07,102.651 126.237,106.985 127,111.5C 128.145,113.926 129.478,116.259 131,118.5C 129.772,121.709 130.605,124.209 133.5,126C 133.141,128.63 132.141,130.797 130.5,132.5C 128.829,125.496 126.329,118.83 123,112.5C 120.512,108.675 117.012,106.508 112.5,106C 108.589,98.2548 102.755,96.0881 95,99.5C 94.3333,101.5 94.3333,103.5 95,105.5C 97.4794,108.069 100.146,110.402 103,112.5C 107.181,120.2 110.848,128.2 114,136.5C 116.287,139.462 119.12,141.629 122.5,143C 119.607,144.149 116.607,144.649 113.5,144.5C 113.655,141.284 112.655,138.617 110.5,136.5C 108.26,129.524 104.593,123.358 99.5,118C 91.2995,111.158 82.9661,104.491 74.5,98C 68.8546,93.8464 62.8546,90.3464 56.5,87.5C 45.6266,82.4735 35.9599,75.6402 27.5,67C 24.1064,66.2483 20.773,66.4149 17.5,67.5C 16.5137,64.1436 16.347,60.8103 17,57.5C 15.2866,56.1218 13.9533,54.4552 13,52.5C 12.6667,55.1667 12.3333,57.8333 12,60.5C 11.5008,55.8452 11.3342,51.1785 11.5,46.5C 13.1599,44.7516 15.1599,44.2516 17.5,45C 20.7339,48.6703 24.0672,52.1703 27.5,55.5 Z"/></g>
<g><path style="opacity:1" fill="#6b6c6f" d="M 11.5,67.5 C 13.0395,69.8383 13.7062,72.5049 13.5,75.5C 12.2318,73.0948 11.5651,70.4282 11.5,67.5 Z"/></g>
<g><path style="opacity:1" fill="#7f8287" d="M 64.5,79.5 C 70.1662,80.3904 75.4995,82.057 80.5,84.5C 74.3854,85.0979 69.0521,83.4313 64.5,79.5 Z"/></g>
<g><path style="opacity:1" fill="#470406" d="M 136.5,77.5 C 136.833,77.5 137.167,77.5 137.5,77.5C 137.063,79.0744 136.063,80.2411 134.5,81C 133.551,81.6172 132.718,81.4506 132,80.5C 125.619,87.1334 118.119,89.1334 109.5,86.5C 113.637,86.8537 117.637,86.3537 121.5,85C 120.167,84.3333 120.167,83.6667 121.5,83C 126.671,81.303 131.671,79.4697 136.5,77.5 Z"/></g>
<g><path style="opacity:1" fill="#c5c8cd" d="M 56.5,87.5 C 62.8546,90.3464 68.8546,93.8464 74.5,98C 82.9661,104.491 91.2995,111.158 99.5,118C 104.593,123.358 108.26,129.524 110.5,136.5C 109.698,137.952 109.198,139.618 109,141.5C 108.667,141.167 108.333,140.833 108,140.5C 107.86,143.043 107.194,145.377 106,147.5C 105.722,146.584 105.222,145.918 104.5,145.5C 103.599,144.71 102.932,143.71 102.5,142.5C 103.75,142.577 104.583,143.244 105,144.5C 105.667,142.5 105.667,140.5 105,138.5C 99.1883,129.35 91.5217,122.35 82,117.5C 77.3813,119.488 72.7146,121.488 68,123.5C 66.6736,122.201 65.3402,120.868 64,119.5C 63.6667,116.167 63.3333,112.833 63,109.5C 58.3697,106.768 53.5364,104.435 48.5,102.5C 47.6669,100.248 47.6669,98.0811 48.5,96C 47.6919,95.6924 47.0253,95.1924 46.5,94.5C 48.5,93.1667 50.1667,91.5 51.5,89.5C 53.1955,88.8256 54.8621,88.1589 56.5,87.5 Z"/></g>
<g><path style="opacity:1" fill="#d2d6da" d="M 196.5,53.5 C 195.781,55.4752 194.614,57.4752 193,59.5C 196.79,60.551 200.623,61.551 204.5,62.5C 206.671,65.5054 208.171,68.8388 209,72.5C 212.961,77.6455 216.794,82.9789 220.5,88.5C 221.262,87.3717 221.929,86.2051 222.5,85C 219.501,80.0016 216.501,75.0016 213.5,70C 211.856,66.6405 211.356,63.1405 212,59.5C 221.274,59.4464 230.107,57.4464 238.5,53.5C 238.58,59.4784 237.58,65.1451 235.5,70.5C 234.12,69.2935 232.953,69.6269 232,71.5C 230.392,80.8206 228.892,90.154 227.5,99.5C 228.046,101.135 228.38,102.801 228.5,104.5C 227.5,104.5 226.5,104.5 225.5,104.5C 225.116,108.604 223.616,112.271 221,115.5C 219.737,108.272 219.07,100.939 219,93.5C 217.556,90.9454 216.389,88.2787 215.5,85.5C 213.139,83.8061 211.139,81.8061 209.5,79.5C 202.663,86.5165 195.83,93.5165 189,100.5C 188.517,101.448 188.351,102.448 188.5,103.5C 195.623,103.769 202.623,104.936 209.5,107C 205.312,107.176 201.312,107.676 197.5,108.5C 181.093,112.119 166.926,119.785 155,131.5C 154.427,133.641 153.594,135.641 152.5,137.5C 151.849,138.091 151.182,138.757 150.5,139.5C 149.914,139.291 149.414,138.957 149,138.5C 148.333,136.5 148.333,134.5 149,132.5C 152.979,126.523 157.646,121.19 163,116.5C 164.803,111.575 163.303,107.742 158.5,105C 158.833,104.667 159.167,104.333 159.5,104C 156.848,101.684 155.015,98.8509 154,95.5C 152.989,94.6634 151.822,94.33 150.5,94.5C 150.5,93.5 150.5,92.5 150.5,91.5C 148.799,91.9662 147.299,91.9662 146,91.5C 143.005,93.7746 139.839,94.9413 136.5,95C 133.897,99.5845 131.23,104.084 128.5,108.5C 132.727,117.546 137.56,126.213 143,134.5C 145.874,138.652 149.374,141.985 153.5,144.5C 153.918,145.222 154.584,145.722 155.5,146C 155.167,146.333 154.833,146.667 154.5,147C 155.26,148.441 155.926,149.941 156.5,151.5C 155.047,151.06 153.881,151.726 153,153.5C 147.626,149.446 142.293,145.446 137,141.5C 133.211,142.562 129.377,142.729 125.5,142C 127.887,139.14 129.553,135.973 130.5,132.5C 132.141,130.797 133.141,128.63 133.5,126C 130.605,124.209 129.772,121.709 131,118.5C 129.478,116.259 128.145,113.926 127,111.5C 126.237,106.985 125.07,102.651 123.5,98.5C 127.074,92.7022 132.074,90.5355 138.5,92C 144.395,84.2703 151.395,77.7703 159.5,72.5C 161.245,68.6232 160.245,67.2898 156.5,68.5C 160.128,65.9449 164.128,63.9449 168.5,62.5C 172.135,61.8477 175.469,60.5144 178.5,58.5C 184.249,56.0293 190.249,54.3627 196.5,53.5 Z"/></g>
<g><path style="opacity:1" fill="#adb0b4" d="M 152.5,137.5 C 152.688,140.206 153.688,142.539 155.5,144.5C 154.833,144.5 154.167,144.5 153.5,144.5C 149.374,141.985 145.874,138.652 143,134.5C 137.56,126.213 132.727,117.546 128.5,108.5C 131.23,104.084 133.897,99.5845 136.5,95C 139.839,94.9413 143.005,93.7746 146,91.5C 147.299,91.9662 148.799,91.9662 150.5,91.5C 150.5,92.5 150.5,93.5 150.5,94.5C 151.822,94.33 152.989,94.6634 154,95.5C 155.015,98.8509 156.848,101.684 159.5,104C 159.167,104.333 158.833,104.667 158.5,105C 163.303,107.742 164.803,111.575 163,116.5C 157.646,121.19 152.979,126.523 149,132.5C 148.333,134.5 148.333,136.5 149,138.5C 149.414,138.957 149.914,139.291 150.5,139.5C 151.182,138.757 151.849,138.091 152.5,137.5 Z"/></g>
<g><path style="opacity:1" fill="#c4c7cd" d="M 235.5,70.5 C 235.073,74.8244 234.739,79.1578 234.5,83.5C 232.549,88.1835 231.549,93.1835 231.5,98.5C 226.67,114.442 221.504,130.442 216,146.5C 214.568,150.377 212.402,153.711 209.5,156.5C 208.779,149.533 208.279,142.533 208,135.5C 207.578,133.574 206.411,132.574 204.5,132.5C 207.063,127.713 209.897,123.047 213,118.5C 213.667,116.5 213.667,114.5 213,112.5C 212.617,111.944 212.117,111.611 211.5,111.5C 211.196,110.85 210.863,110.183 210.5,109.5C 206.217,108.508 201.884,108.174 197.5,108.5C 201.312,107.676 205.312,107.176 209.5,107C 202.623,104.936 195.623,103.769 188.5,103.5C 188.351,102.448 188.517,101.448 189,100.5C 195.83,93.5165 202.663,86.5165 209.5,79.5C 211.139,81.8061 213.139,83.8061 215.5,85.5C 216.389,88.2787 217.556,90.9454 219,93.5C 219.07,100.939 219.737,108.272 221,115.5C 223.616,112.271 225.116,108.604 225.5,104.5C 226.5,104.5 227.5,104.5 228.5,104.5C 228.38,102.801 228.046,101.135 227.5,99.5C 228.892,90.154 230.392,80.8206 232,71.5C 232.953,69.6269 234.12,69.2935 235.5,70.5 Z"/></g>
<g><path style="opacity:1" fill="#767676" d="M 21.5,124.5 C 20.791,125.404 19.791,125.737 18.5,125.5C 18.4013,128.237 18.7347,130.904 19.5,133.5C 18.1667,133.5 17.5,134.167 17.5,135.5C 16.2983,128.316 16.2983,120.982 17.5,113.5C 17.56,112.957 17.8933,112.624 18.5,112.5C 19.3196,116.631 20.3196,120.631 21.5,124.5 Z"/></g>
<g><path style="opacity:1" fill="#c2c5cb" d="M 15.5,87.5 C 17.0672,88.6808 17.9005,90.3474 18,92.5C 18.2189,91.062 18.7189,89.7287 19.5,88.5C 20.6076,92.1063 21.9409,95.6063 23.5,99C 22.4844,99.5194 21.8178,100.353 21.5,101.5C 22.2729,105.096 23.2729,108.596 24.5,112C 23.0091,114.022 23.3424,115.688 25.5,117C 24.4829,118.049 24.3162,119.216 25,120.5C 25.7253,118.842 26.892,118.342 28.5,119C 29.2072,123.804 31.7072,127.304 36,129.5C 37.2051,128.929 38.3717,128.262 39.5,127.5C 37.0217,126.278 36.0217,124.278 36.5,121.5C 40.0765,126.748 44.4098,131.414 49.5,135.5C 50.4656,137.396 50.7989,139.396 50.5,141.5C 48.9552,145.956 47.2885,150.289 45.5,154.5C 44.8333,157.5 44.1667,160.5 43.5,163.5C 31.9714,144.586 23.9714,124.252 19.5,102.5C 18.035,97.647 16.7017,92.647 15.5,87.5 Z"/></g>
<g><path style="opacity:1" fill="#2f3137" d="M 234.5,83.5 C 234.251,86.0021 233.917,88.5021 233.5,91C 239.177,113.494 237.343,135.328 228,156.5C 220.365,172.283 210.865,186.783 199.5,200C 194.309,203.759 188.976,207.259 183.5,210.5C 185.782,207.878 188.115,205.212 190.5,202.5C 192.194,200.139 194.194,198.139 196.5,196.5C 214.253,180.676 225.586,161.009 230.5,137.5C 231.652,132.015 231.818,126.349 231,120.5C 230.617,121.056 230.117,121.389 229.5,121.5C 230.233,119.037 231.233,116.703 232.5,114.5C 232.627,109.08 232.293,103.747 231.5,98.5C 231.549,93.1835 232.549,88.1835 234.5,83.5 Z"/></g>
<g><path style="opacity:1" fill="#525252" d="M 230.5,137.5 C 230.5,136.5 230.5,135.5 230.5,134.5C 230.631,133.624 230.298,132.957 229.5,132.5C 225.949,134.623 223.616,137.623 222.5,141.5C 223.639,134.417 225.972,127.75 229.5,121.5C 230.117,121.389 230.617,121.056 231,120.5C 231.818,126.349 231.652,132.015 230.5,137.5 Z"/></g>
<g><path style="opacity:1" fill="#3d3d3d" d="M 21.5,124.5 C 22.5249,127.974 23.1916,131.64 23.5,135.5C 22.8333,135.167 22.1667,134.833 21.5,134.5C 20.8333,134.167 20.1667,133.833 19.5,133.5C 18.7347,130.904 18.4013,128.237 18.5,125.5C 19.791,125.737 20.791,125.404 21.5,124.5 Z"/></g>
<g><path style="opacity:1" fill="#9c9c9c" d="M 230.5,134.5 C 229.504,134.414 228.671,134.748 228,135.5C 226.629,140.58 224.963,145.58 223,150.5C 221.723,152.747 220.223,154.747 218.5,156.5C 218.841,153.484 220.007,150.818 222,148.5C 222.497,146.19 222.663,143.857 222.5,141.5C 223.616,137.623 225.949,134.623 229.5,132.5C 230.298,132.957 230.631,133.624 230.5,134.5 Z"/></g>
<g><path style="opacity:1" fill="#c1c5ca" d="M 130.5,132.5 C 129.553,135.973 127.887,139.14 125.5,142C 129.377,142.729 133.211,142.562 137,141.5C 142.293,145.446 147.626,149.446 153,153.5C 153.881,151.726 155.047,151.06 156.5,151.5C 155.926,149.941 155.26,148.441 154.5,147C 154.833,146.667 155.167,146.333 155.5,146C 154.584,145.722 153.918,145.222 153.5,144.5C 154.167,144.5 154.833,144.5 155.5,144.5C 156.167,144.5 156.5,144.833 156.5,145.5C 158.205,147.192 160.205,148.525 162.5,149.5C 161.294,150.88 161.627,152.047 163.5,153C 168.385,154.883 173.052,157.216 177.5,160C 179.005,162.67 181.005,164.836 183.5,166.5C 182.213,169.281 180.213,169.948 177.5,168.5C 178.506,167.604 178.506,166.938 177.5,166.5C 173.851,167.115 170.184,166.781 166.5,165.5C 165.524,166.195 164.524,166.862 163.5,167.5C 159.827,166 156.494,164 153.5,161.5C 152.052,156.864 148.719,153.364 143.5,151C 142.21,148.708 140.543,146.708 138.5,145C 129.993,144.841 121.659,145.674 113.5,147.5C 113.5,146.5 113.5,145.5 113.5,144.5C 116.607,144.649 119.607,144.149 122.5,143C 119.12,141.629 116.287,139.462 114,136.5C 110.848,128.2 107.181,120.2 103,112.5C 100.146,110.402 97.4794,108.069 95,105.5C 94.3333,103.5 94.3333,101.5 95,99.5C 102.755,96.0881 108.589,98.2548 112.5,106C 117.012,106.508 120.512,108.675 123,112.5C 126.329,118.83 128.829,125.496 130.5,132.5 Z"/></g>
<g><path style="opacity:1" fill="#b1b3b6" d="M 19.5,133.5 C 20.1667,133.833 20.8333,134.167 21.5,134.5C 24.1588,144.643 27.8255,154.31 32.5,163.5C 32.4332,165.401 32.7665,167.234 33.5,169C 33.3613,170.301 32.6946,171.134 31.5,171.5C 28.8127,166.427 25.9794,161.427 23,156.5C 21.2186,149.402 19.3853,142.402 17.5,135.5C 17.5,134.167 18.1667,133.5 19.5,133.5 Z"/></g>
<g><path style="opacity:1" fill="#505050" d="M 222.5,141.5 C 222.663,143.857 222.497,146.19 222,148.5C 220.007,150.818 218.841,153.484 218.5,156.5C 217.471,158.517 216.471,160.517 215.5,162.5C 210.777,168.253 206.277,174.253 202,180.5C 199.579,182.697 196.745,184.03 193.5,184.5C 195.41,182.438 197.743,180.938 200.5,180C 209.804,168.218 217.137,155.385 222.5,141.5 Z"/></g>
<g><path style="opacity:1" fill="#4f4f4f" d="M 21.5,134.5 C 22.1667,134.833 22.8333,135.167 23.5,135.5C 29.7107,143.588 34.044,152.588 36.5,162.5C 35.8895,165.961 37.0561,168.628 40,170.5C 41.0086,172.025 41.5086,173.692 41.5,175.5C 38.5,171.5 35.5,167.5 32.5,163.5C 27.8255,154.31 24.1588,144.643 21.5,134.5 Z"/></g>
<g><path style="opacity:1" fill="#949494" d="M 215.5,162.5 C 214.109,164.921 213.275,167.588 213,170.5C 209.615,174.217 206.615,178.217 204,182.5C 199.874,183.931 195.707,185.264 191.5,186.5C 191.833,185.833 192.167,185.167 192.5,184.5C 192.833,184.5 193.167,184.5 193.5,184.5C 196.745,184.03 199.579,182.697 202,180.5C 206.277,174.253 210.777,168.253 215.5,162.5 Z"/></g>
<g><path style="opacity:1" fill="#222d54" d="M 19.5,156.5 C 27.1291,169.975 35.7958,182.809 45.5,195C 45.2716,195.399 44.9382,195.565 44.5,195.5C 32.5521,184.872 24.2188,171.872 19.5,156.5 Z"/></g>
<g><path style="opacity:1" fill="#0e0d11" d="M 231.5,98.5 C 232.293,103.747 232.627,109.08 232.5,114.5C 231.233,116.703 230.233,119.037 229.5,121.5C 225.972,127.75 223.639,134.417 222.5,141.5C 217.137,155.385 209.804,168.218 200.5,180C 197.743,180.938 195.41,182.438 193.5,184.5C 193.167,184.5 192.833,184.5 192.5,184.5C 187.737,185.024 183.07,185.024 178.5,184.5C 175.829,182.882 172.829,182.215 169.5,182.5C 169.512,178.554 167.512,176.887 163.5,177.5C 159.9,175.553 156.567,173.053 153.5,170C 148.62,168.97 144.953,166.303 142.5,162C 135.303,158.644 127.97,157.81 120.5,159.5C 116.038,161.282 111.371,162.449 106.5,163C 100.701,169.138 93.7014,173.138 85.5,175C 84.6634,176.011 84.33,177.178 84.5,178.5C 78.9271,179.351 73.9271,181.351 69.5,184.5C 63.0804,183.966 56.747,182.799 50.5,181C 48.3333,178.833 46.1667,176.667 44,174.5C 41.4507,170.382 38.9507,166.382 36.5,162.5C 34.044,152.588 29.7107,143.588 23.5,135.5C 23.1916,131.64 22.5249,127.974 21.5,124.5C 20.3196,120.631 19.3196,116.631 18.5,112.5C 17.8933,112.624 17.56,112.957 17.5,113.5C 15.9328,112.319 15.0995,110.653 15,108.5C 14.6174,109.056 14.1174,109.389 13.5,109.5C 13.0632,106.193 13.7298,103.193 15.5,100.5C 16.3939,104.198 17.3939,107.865 18.5,111.5C 19.4841,108.572 19.8174,105.572 19.5,102.5C 23.9714,124.252 31.9714,144.586 43.5,163.5C 45.5567,167.729 48.2234,171.563 51.5,175C 53.5183,175.505 55.5183,176.005 57.5,176.5C 66.0024,176.14 74.0024,173.973 81.5,170C 90.3192,165.087 98.6525,159.42 106.5,153C 108.788,152.178 111.122,151.511 113.5,151C 121.833,150.333 130.167,150.333 138.5,151C 143.398,154.745 148.398,158.245 153.5,161.5C 156.494,164 159.827,166 163.5,167.5C 173.411,174.119 184.411,176.619 196.5,175C 199.877,171.069 202.877,166.902 205.5,162.5C 207.192,160.795 208.525,158.795 209.5,156.5C 212.402,153.711 214.568,150.377 216,146.5C 221.504,130.442 226.67,114.442 231.5,98.5 Z"/></g>
<g><path style="opacity:1" fill="#520204" d="M 120.5,159.5 C 127.97,157.81 135.303,158.644 142.5,162C 144.953,166.303 148.62,168.97 153.5,170C 156.567,173.053 159.9,175.553 163.5,177.5C 164.058,178.79 165.058,179.623 166.5,180C 165.956,180.717 165.289,181.217 164.5,181.5C 162.064,179.984 160.064,177.984 158.5,175.5C 157.833,175.5 157.167,175.5 156.5,175.5C 153.972,174.977 151.639,173.977 149.5,172.5C 148.558,172.608 147.725,172.941 147,173.5C 146.667,171.833 146.333,170.167 146,168.5C 144.028,167.695 142.528,166.361 141.5,164.5C 140.478,164.855 139.811,165.522 139.5,166.5C 138.016,164.926 136.349,163.593 134.5,162.5C 134.5,162.167 134.5,161.833 134.5,161.5C 130.081,160.028 125.414,159.362 120.5,159.5 Z"/></g>
<g><path style="opacity:1" fill="#666972" d="M 45.5,154.5 C 44.8955,159.194 45.7289,163.528 48,167.5C 50.646,172.262 54.4793,173.595 59.5,171.5C 59.0557,173.113 58.0557,174.28 56.5,175C 57.056,175.383 57.3893,175.883 57.5,176.5C 55.5183,176.005 53.5183,175.505 51.5,175C 48.2234,171.563 45.5567,167.729 43.5,163.5C 44.1667,160.5 44.8333,157.5 45.5,154.5 Z"/></g>
<g><path style="opacity:1" fill="#c4071a" d="M 134.5,161.5 C 134.5,161.833 134.5,162.167 134.5,162.5C 129.082,167.758 123.749,167.758 118.5,162.5C 123.792,161.505 129.125,161.172 134.5,161.5 Z"/></g>
<g><path style="opacity:1" fill="#720402" d="M 120.5,159.5 C 125.414,159.362 130.081,160.028 134.5,161.5C 129.125,161.172 123.792,161.505 118.5,162.5C 123.749,167.758 129.082,167.758 134.5,162.5C 136.349,163.593 138.016,164.926 139.5,166.5C 135.196,173.938 128.863,176.438 120.5,174C 116.62,171.621 113.62,168.454 111.5,164.5C 113.435,163.85 115.435,163.517 117.5,163.5C 117.5,162.5 117.5,161.5 117.5,160.5C 118.791,160.737 119.791,160.404 120.5,159.5 Z"/></g>
<g><path style="opacity:1" fill="#a9abb1" d="M 110.5,136.5 C 112.655,138.617 113.655,141.284 113.5,144.5C 113.5,145.5 113.5,146.5 113.5,147.5C 121.659,145.674 129.993,144.841 138.5,145C 140.543,146.708 142.21,148.708 143.5,151C 148.719,153.364 152.052,156.864 153.5,161.5C 148.398,158.245 143.398,154.745 138.5,151C 130.167,150.333 121.833,150.333 113.5,151C 111.122,151.511 108.788,152.178 106.5,153C 98.6525,159.42 90.3192,165.087 81.5,170C 74.0024,173.973 66.0024,176.14 57.5,176.5C 57.3893,175.883 57.056,175.383 56.5,175C 58.0557,174.28 59.0557,173.113 59.5,171.5C 62.8935,169.111 64.2268,165.777 63.5,161.5C 62.6684,157.102 61.6684,152.769 60.5,148.5C 60.2148,146.712 60.5481,145.045 61.5,143.5C 74.162,149.782 87.4954,152.449 101.5,151.5C 101.863,150.817 102.196,150.15 102.5,149.5C 103.806,148.533 104.473,147.199 104.5,145.5C 105.222,145.918 105.722,146.584 106,147.5C 107.194,145.377 107.86,143.043 108,140.5C 108.333,140.833 108.667,141.167 109,141.5C 109.198,139.618 109.698,137.952 110.5,136.5 Z"/></g>
<g><path style="opacity:1" fill="#b4b7bd" d="M 201.5,143.5 C 202.488,148.64 202.821,153.974 202.5,159.5C 203.552,159.351 204.552,159.517 205.5,160C 204.226,160.977 204.226,161.811 205.5,162.5C 202.877,166.902 199.877,171.069 196.5,175C 184.411,176.619 173.411,174.119 163.5,167.5C 164.524,166.862 165.524,166.195 166.5,165.5C 170.184,166.781 173.851,167.115 177.5,166.5C 178.506,166.938 178.506,167.604 177.5,168.5C 180.213,169.948 182.213,169.281 183.5,166.5C 181.005,164.836 179.005,162.67 177.5,160C 173.052,157.216 168.385,154.883 163.5,153C 161.627,152.047 161.294,150.88 162.5,149.5C 169.701,149.876 176.701,148.876 183.5,146.5C 186.677,147.014 189.011,148.681 190.5,151.5C 192.625,155.946 194.458,160.613 196,165.5C 198.09,166.791 199.424,166.124 200,163.5C 201.052,156.872 201.552,150.206 201.5,143.5 Z"/></g>
<g><path style="opacity:1" fill="#64666d" d="M 102.5,149.5 C 102.196,150.15 101.863,150.817 101.5,151.5C 87.4954,152.449 74.162,149.782 61.5,143.5C 60.5481,145.045 60.2148,146.712 60.5,148.5C 59.5318,146.393 59.1984,144.059 59.5,141.5C 69.5205,144.341 79.8538,145.841 90.5,146C 94.6714,146.669 98.6714,147.836 102.5,149.5 Z"/></g>
<g><path style="opacity:1" fill="#717378" d="M 190.5,151.5 C 189.011,148.681 186.677,147.014 183.5,146.5C 176.701,148.876 169.701,149.876 162.5,149.5C 160.205,148.525 158.205,147.192 156.5,145.5C 166.523,145.423 176.523,145.256 186.5,145C 188.923,146.571 190.256,148.737 190.5,151.5 Z"/></g>
<g><path style="opacity:1" fill="#d3d6db" d="M 204.5,132.5 C 206.411,132.574 207.578,133.574 208,135.5C 208.279,142.533 208.779,149.533 209.5,156.5C 208.525,158.795 207.192,160.795 205.5,162.5C 204.226,161.811 204.226,160.977 205.5,160C 204.552,159.517 203.552,159.351 202.5,159.5C 202.821,153.974 202.488,148.64 201.5,143.5C 201.335,140.482 201.502,137.482 202,134.5C 202.708,133.619 203.542,132.953 204.5,132.5 Z"/></g>
<g><path style="opacity:1" fill="#22232b" d="M 197.5,108.5 C 201.884,108.174 206.217,108.508 210.5,109.5C 210.863,110.183 211.196,110.85 211.5,111.5C 211.808,113.924 211.474,116.257 210.5,118.5C 207.82,122.791 204.654,126.791 201,130.5C 200.186,135.02 200.353,139.354 201.5,143.5C 201.552,150.206 201.052,156.872 200,163.5C 199.424,166.124 198.09,166.791 196,165.5C 194.458,160.613 192.625,155.946 190.5,151.5C 190.256,148.737 188.923,146.571 186.5,145C 176.523,145.256 166.523,145.423 156.5,145.5C 156.5,144.833 156.167,144.5 155.5,144.5C 153.688,142.539 152.688,140.206 152.5,137.5C 153.594,135.641 154.427,133.641 155,131.5C 166.926,119.785 181.093,112.119 197.5,108.5 Z"/></g>
<g><path style="opacity:1" fill="#6b6d71" d="M 211.5,111.5 C 212.117,111.611 212.617,111.944 213,112.5C 213.667,114.5 213.667,116.5 213,118.5C 209.897,123.047 207.063,127.713 204.5,132.5C 203.542,132.953 202.708,133.619 202,134.5C 201.502,137.482 201.335,140.482 201.5,143.5C 200.353,139.354 200.186,135.02 201,130.5C 204.654,126.791 207.82,122.791 210.5,118.5C 211.474,116.257 211.808,113.924 211.5,111.5 Z"/></g>
<g><path style="opacity:1" fill="#727377" d="M 37.5,106.5 C 42.1192,106.73 46.4526,107.73 50.5,109.5C 44.6344,109.682 38.9677,109.015 33.5,107.5C 33.238,108.978 33.5713,110.311 34.5,111.5C 39.8279,118.336 44.9946,125.336 50,132.5C 51.6633,135.56 51.8299,138.56 50.5,141.5C 50.7989,139.396 50.4656,137.396 49.5,135.5C 44.4098,131.414 40.0765,126.748 36.5,121.5C 33.9463,116.837 32.6129,111.837 32.5,106.5C 34.1667,106.5 35.8333,106.5 37.5,106.5 Z"/></g>
<g><path style="opacity:1" fill="#79797c" d="M 85.5,124.5 C 81.8915,124.132 78.2248,124.632 74.5,126C 73.8333,127 73.1667,128 72.5,129C 69.633,129.801 66.9664,129.634 64.5,128.5C 70.3803,126.893 75.7137,124.226 80.5,120.5C 82.8147,121.141 84.4814,122.475 85.5,124.5 Z"/></g>
<g><path style="opacity:1" fill="#e3e6ea" d="M 48.5,102.5 C 53.5364,104.435 58.3697,106.768 63,109.5C 63.3333,112.833 63.6667,116.167 64,119.5C 65.3402,120.868 66.6736,122.201 68,123.5C 72.7146,121.488 77.3813,119.488 82,117.5C 91.5217,122.35 99.1883,129.35 105,138.5C 105.667,140.5 105.667,142.5 105,144.5C 104.583,143.244 103.75,142.577 102.5,142.5C 97.5092,135.843 91.8425,129.843 85.5,124.5C 84.4814,122.475 82.8147,121.141 80.5,120.5C 75.7137,124.226 70.3803,126.893 64.5,128.5C 62.629,128.141 61.129,127.141 60,125.5C 58.2905,121.289 56.9572,116.956 56,112.5C 54.2811,111.131 52.4478,110.131 50.5,109.5C 46.4526,107.73 42.1192,106.73 37.5,106.5C 36.2347,105.521 34.9014,104.521 33.5,103.5C 33.7093,102.914 34.0426,102.414 34.5,102C 39.1935,101.436 43.8602,101.603 48.5,102.5 Z"/></g>
<g><path style="opacity:1" fill="#20222a" d="M 50.5,109.5 C 52.4478,110.131 54.2811,111.131 56,112.5C 56.9572,116.956 58.2905,121.289 60,125.5C 61.129,127.141 62.629,128.141 64.5,128.5C 66.9664,129.634 69.633,129.801 72.5,129C 73.1667,128 73.8333,127 74.5,126C 78.2248,124.632 81.8915,124.132 85.5,124.5C 91.8425,129.843 97.5092,135.843 102.5,142.5C 102.932,143.71 103.599,144.71 104.5,145.5C 104.473,147.199 103.806,148.533 102.5,149.5C 98.6714,147.836 94.6714,146.669 90.5,146C 79.8538,145.841 69.5205,144.341 59.5,141.5C 59.1984,144.059 59.5318,146.393 60.5,148.5C 61.6684,152.769 62.6684,157.102 63.5,161.5C 64.2268,165.777 62.8935,169.111 59.5,171.5C 54.4793,173.595 50.646,172.262 48,167.5C 45.7289,163.528 44.8955,159.194 45.5,154.5C 47.2885,150.289 48.9552,145.956 50.5,141.5C 51.8299,138.56 51.6633,135.56 50,132.5C 44.9946,125.336 39.8279,118.336 34.5,111.5C 33.5713,110.311 33.238,108.978 33.5,107.5C 38.9677,109.015 44.6344,109.682 50.5,109.5 Z"/></g>
<g><path style="opacity:1" fill="#d10821" d="M 111.5,164.5 C 113.62,168.454 116.62,171.621 120.5,174C 128.863,176.438 135.196,173.938 139.5,166.5C 143.815,167.547 145.648,170.213 145,174.5C 141.487,182.208 136.987,189.208 131.5,195.5C 128.064,196.782 124.731,196.782 121.5,195.5C 117.11,190.603 113.277,185.27 110,179.5C 107.701,175.104 106.534,170.438 106.5,165.5C 108.117,164.962 109.784,164.629 111.5,164.5 Z"/></g>
<g><path style="opacity:1" fill="#420509" d="M 120.5,159.5 C 119.791,160.404 118.791,160.737 117.5,160.5C 117.5,161.5 117.5,162.5 117.5,163.5C 115.435,163.517 113.435,163.85 111.5,164.5C 109.784,164.629 108.117,164.962 106.5,165.5C 101.193,170.161 95.1934,173.494 88.5,175.5C 85.9162,176.048 84.9162,177.715 85.5,180.5C 84.448,180.351 83.448,180.517 82.5,181C 83.6956,181.654 83.6956,182.154 82.5,182.5C 80.6254,181.164 79.2921,181.664 78.5,184C 85.0305,190.359 92.6971,193.526 101.5,193.5C 103.944,194.222 106.278,195.222 108.5,196.5C 109.298,196.043 109.631,195.376 109.5,194.5C 110.791,194.263 111.791,194.596 112.5,195.5C 111.624,195.369 110.957,195.702 110.5,196.5C 111.127,197.417 111.461,198.417 111.5,199.5C 104.814,198.385 98.1477,197.052 91.5,195.5C 87.6449,193.714 83.6449,192.214 79.5,191C 76.0349,189.035 72.7016,186.868 69.5,184.5C 73.9271,181.351 78.9271,179.351 84.5,178.5C 84.33,177.178 84.6634,176.011 85.5,175C 93.7014,173.138 100.701,169.138 106.5,163C 111.371,162.449 116.038,161.282 120.5,159.5 Z"/></g>
<g><path style="opacity:1" fill="#7e0103" d="M 156.5,175.5 C 150.89,176.803 146.89,180.136 144.5,185.5C 145,185.833 145.5,186.167 146,186.5C 150.162,184.674 154.329,182.841 158.5,181C 159.536,179.224 159.536,177.391 158.5,175.5C 160.064,177.984 162.064,179.984 164.5,181.5C 155.349,190.222 144.349,194.889 131.5,195.5C 136.987,189.208 141.487,182.208 145,174.5C 145.648,170.213 143.815,167.547 139.5,166.5C 139.811,165.522 140.478,164.855 141.5,164.5C 142.528,166.361 144.028,167.695 146,168.5C 146.333,170.167 146.667,171.833 147,173.5C 147.725,172.941 148.558,172.608 149.5,172.5C 151.639,173.977 153.972,174.977 156.5,175.5 Z"/></g>
<g><path style="opacity:1" fill="#a70310" d="M 156.5,175.5 C 157.167,175.5 157.833,175.5 158.5,175.5C 159.536,177.391 159.536,179.224 158.5,181C 154.329,182.841 150.162,184.674 146,186.5C 145.5,186.167 145,185.833 144.5,185.5C 146.89,180.136 150.89,176.803 156.5,175.5 Z"/></g>
<g><path style="opacity:1" fill="#55050d" d="M 88.5,175.5 C 87.645,176.531 86.9783,177.697 86.5,179C 87.7763,181.281 89.4429,183.281 91.5,185C 97.4353,188.464 103.435,191.631 109.5,194.5C 109.631,195.376 109.298,196.043 108.5,196.5C 106.278,195.222 103.944,194.222 101.5,193.5C 92.6971,193.526 85.0305,190.359 78.5,184C 79.2921,181.664 80.6254,181.164 82.5,182.5C 83.6956,182.154 83.6956,181.654 82.5,181C 83.448,180.517 84.448,180.351 85.5,180.5C 84.9162,177.715 85.9162,176.048 88.5,175.5 Z"/></g>
<g><path style="opacity:1" fill="#7f0103" d="M 106.5,165.5 C 106.534,170.438 107.701,175.104 110,179.5C 113.277,185.27 117.11,190.603 121.5,195.5C 118.5,195.5 115.5,195.5 112.5,195.5C 111.791,194.596 110.791,194.263 109.5,194.5C 103.435,191.631 97.4353,188.464 91.5,185C 89.4429,183.281 87.7763,181.281 86.5,179C 86.9783,177.697 87.645,176.531 88.5,175.5C 95.1934,173.494 101.193,170.161 106.5,165.5 Z"/></g>
<g><path style="opacity:1" fill="#b00213" d="M 92.5,175.5 C 96.3076,175.163 99.9743,175.663 103.5,177C 105.113,179.228 105.78,181.728 105.5,184.5C 99.9277,183.921 94.5943,182.421 89.5,180C 88.5494,179.282 88.3828,178.449 89,177.5C 90.3024,176.915 91.469,176.249 92.5,175.5 Z"/></g>
<g><path style="opacity:1" fill="#363841" d="M 17.5,113.5 C 16.2983,120.982 16.2983,128.316 17.5,135.5C 19.3853,142.402 21.2186,149.402 23,156.5C 25.9794,161.427 28.8127,166.427 31.5,171.5C 37.7655,183.608 46.4322,193.774 57.5,202C 63.2343,206.188 68.9009,210.354 74.5,214.5C 66.0815,211.124 58.0815,206.958 50.5,202C 47.6966,200.549 45.6966,198.382 44.5,195.5C 44.9382,195.565 45.2716,195.399 45.5,195C 35.7958,182.809 27.1291,169.975 19.5,156.5C 13.7733,141.404 11.7733,125.737 13.5,109.5C 14.1174,109.389 14.6174,109.056 15,108.5C 15.0995,110.653 15.9328,112.319 17.5,113.5 Z"/></g>
<g><path style="opacity:1" fill="#300709" d="M 163.5,177.5 C 167.512,176.887 169.512,178.554 169.5,182.5C 172.829,182.215 175.829,182.882 178.5,184.5C 175.642,187.086 172.642,189.42 169.5,191.5C 167.847,191.66 166.514,192.326 165.5,193.5C 159.278,194.63 153.278,196.463 147.5,199C 135.505,199.5 123.505,199.667 111.5,199.5C 111.461,198.417 111.127,197.417 110.5,196.5C 110.957,195.702 111.624,195.369 112.5,195.5C 115.5,195.5 118.5,195.5 121.5,195.5C 124.731,196.782 128.064,196.782 131.5,195.5C 144.349,194.889 155.349,190.222 164.5,181.5C 165.289,181.217 165.956,180.717 166.5,180C 165.058,179.623 164.058,178.79 163.5,177.5 Z"/></g>
<g><path style="opacity:1" fill="#939494" d="M 32.5,163.5 C 35.5,167.5 38.5,171.5 41.5,175.5C 44.5213,181.549 49.1879,185.215 55.5,186.5C 54.7611,186.369 54.0944,186.536 53.5,187C 56.688,188.934 58.188,191.768 58,195.5C 65.255,200.544 72.4216,205.711 79.5,211C 83.4189,212.862 87.4189,214.529 91.5,216C 100.092,216.431 108.425,217.931 116.5,220.5C 117.99,222.28 119.99,222.946 122.5,222.5C 121.833,220.167 121.167,217.833 120.5,215.5C 128.019,215.152 135.352,214.152 142.5,212.5C 140.107,216.402 137.107,219.902 133.5,223C 129.736,223.985 125.903,224.485 122,224.5C 109.588,225.429 98.0884,222.929 87.5,217C 83.1843,216.004 78.8509,215.17 74.5,214.5C 68.9009,210.354 63.2343,206.188 57.5,202C 46.4322,193.774 37.7655,183.608 31.5,171.5C 32.6946,171.134 33.3613,170.301 33.5,169C 32.7665,167.234 32.4332,165.401 32.5,163.5 Z"/></g>
<g><path style="opacity:1" fill="#caccce" d="M 230.5,134.5 C 230.5,135.5 230.5,136.5 230.5,137.5C 225.586,161.009 214.253,180.676 196.5,196.5C 193.155,196.674 191.988,195.341 193,192.5C 182.616,196.268 174.449,202.768 168.5,212C 164.176,212.582 159.843,213.082 155.5,213.5C 153.36,213.444 151.694,212.777 150.5,211.5C 151.028,210.279 151.695,209.113 152.5,208C 156.435,207.916 160.102,206.916 163.5,205C 165.527,202.319 168.193,200.653 171.5,200C 172.79,197.708 174.457,195.708 176.5,194C 181.859,192.123 186.859,189.623 191.5,186.5C 195.707,185.264 199.874,183.931 204,182.5C 206.615,178.217 209.615,174.217 213,170.5C 213.275,167.588 214.109,164.921 215.5,162.5C 216.471,160.517 217.471,158.517 218.5,156.5C 220.223,154.747 221.723,152.747 223,150.5C 224.963,145.58 226.629,140.58 228,135.5C 228.671,134.748 229.504,134.414 230.5,134.5 Z"/></g>
<g><path style="opacity:0.999" fill="#3b3c40" d="M 36.5,162.5 C 38.9507,166.382 41.4507,170.382 44,174.5C 46.1667,176.667 48.3333,178.833 50.5,181C 56.747,182.799 63.0804,183.966 69.5,184.5C 72.7016,186.868 76.0349,189.035 79.5,191C 83.6449,192.214 87.6449,193.714 91.5,195.5C 92.5736,196.885 93.9069,198.051 95.5,199C 107.342,203.642 119.676,206.142 132.5,206.5C 134.833,205 137.167,203.5 139.5,202C 148.933,201.021 157.6,198.188 165.5,193.5C 166.514,192.326 167.847,191.66 169.5,191.5C 169.056,193.113 168.056,194.28 166.5,195C 167.711,195.893 167.711,196.726 166.5,197.5C 158.315,201.008 149.981,203.674 141.5,205.5C 136.07,206.97 130.57,208.303 125,209.5C 116.058,207.32 106.892,206.154 97.5,206C 85.4518,203.259 75.4518,197.259 67.5,188C 63.9399,186.763 60.2733,186.263 56.5,186.5C 56.1667,186.5 55.8333,186.5 55.5,186.5C 49.1879,185.215 44.5213,181.549 41.5,175.5C 41.5086,173.692 41.0086,172.025 40,170.5C 37.0561,168.628 35.8895,165.961 36.5,162.5 Z"/></g>
<g><path style="opacity:1" fill="#1d1e20" d="M 165.5,193.5 C 157.6,198.188 148.933,201.021 139.5,202C 137.167,203.5 134.833,205 132.5,206.5C 119.676,206.142 107.342,203.642 95.5,199C 93.9069,198.051 92.5736,196.885 91.5,195.5C 98.1477,197.052 104.814,198.385 111.5,199.5C 123.505,199.667 135.505,199.5 147.5,199C 153.278,196.463 159.278,194.63 165.5,193.5 Z"/></g>
<g><path style="opacity:0.999" fill="#4c4d51" d="M 178.5,184.5 C 183.07,185.024 187.737,185.024 192.5,184.5C 192.167,185.167 191.833,185.833 191.5,186.5C 186.859,189.623 181.859,192.123 176.5,194C 174.457,195.708 172.79,197.708 171.5,200C 168.193,200.653 165.527,202.319 163.5,205C 160.102,206.916 156.435,207.916 152.5,208C 151.695,209.113 151.028,210.279 150.5,211.5C 146.334,214.321 143.334,217.988 141.5,222.5C 144.518,222.665 147.518,222.498 150.5,222C 164.781,217.359 178.114,210.859 190.5,202.5C 188.115,205.212 185.782,207.878 183.5,210.5C 178.986,212.061 174.486,213.728 170,215.5C 165.481,218.362 160.981,221.196 156.5,224C 127.633,231.457 100.299,228.29 74.5,214.5C 78.8509,215.17 83.1843,216.004 87.5,217C 98.0884,222.929 109.588,225.429 122,224.5C 125.903,224.485 129.736,223.985 133.5,223C 137.107,219.902 140.107,216.402 142.5,212.5C 143.833,211.833 144.833,210.833 145.5,209.5C 146.434,208.432 146.768,207.099 146.5,205.5C 144.833,205.5 143.167,205.5 141.5,205.5C 149.981,203.674 158.315,201.008 166.5,197.5C 167.711,196.726 167.711,195.893 166.5,195C 168.056,194.28 169.056,193.113 169.5,191.5C 172.642,189.42 175.642,187.086 178.5,184.5 Z"/></g>
<g><path style="opacity:1" fill="#dadde0" d="M 55.5,186.5 C 55.8333,186.5 56.1667,186.5 56.5,186.5C 63.7037,192.788 71.3704,198.621 79.5,204C 89.3207,207.362 99.3207,210.196 109.5,212.5C 114.316,213.326 119.316,213.826 124.5,214C 122.866,214.494 121.199,214.66 119.5,214.5C 119.5,216.5 119.5,218.5 119.5,220.5C 118.5,220.5 117.5,220.5 116.5,220.5C 108.425,217.931 100.092,216.431 91.5,216C 87.4189,214.529 83.4189,212.862 79.5,211C 72.4216,205.711 65.255,200.544 58,195.5C 58.188,191.768 56.688,188.934 53.5,187C 54.0944,186.536 54.7611,186.369 55.5,186.5 Z"/></g>
<g><path style="opacity:0.999" fill="#656566" d="M 56.5,186.5 C 60.2733,186.263 63.9399,186.763 67.5,188C 75.4518,197.259 85.4518,203.259 97.5,206C 106.892,206.154 116.058,207.32 125,209.5C 130.57,208.303 136.07,206.97 141.5,205.5C 143.167,205.5 144.833,205.5 146.5,205.5C 146.768,207.099 146.434,208.432 145.5,209.5C 145.5,208.5 145.5,207.5 145.5,206.5C 133.648,209.336 121.648,211.336 109.5,212.5C 99.3207,210.196 89.3207,207.362 79.5,204C 71.3704,198.621 63.7037,192.788 56.5,186.5 Z"/></g>
<g><path style="opacity:1" fill="#babdbf" d="M 145.5,209.5 C 144.833,210.833 143.833,211.833 142.5,212.5C 135.352,214.152 128.019,215.152 120.5,215.5C 121.167,217.833 121.833,220.167 122.5,222.5C 119.99,222.946 117.99,222.28 116.5,220.5C 117.5,220.5 118.5,220.5 119.5,220.5C 119.5,218.5 119.5,216.5 119.5,214.5C 121.199,214.66 122.866,214.494 124.5,214C 119.316,213.826 114.316,213.326 109.5,212.5C 121.648,211.336 133.648,209.336 145.5,206.5C 145.5,207.5 145.5,208.5 145.5,209.5 Z"/></g>
<g><path style="opacity:1" fill="#9d9e9f" d="M 196.5,196.5 C 194.194,198.139 192.194,200.139 190.5,202.5C 178.114,210.859 164.781,217.359 150.5,222C 147.518,222.498 144.518,222.665 141.5,222.5C 143.334,217.988 146.334,214.321 150.5,211.5C 151.694,212.777 153.36,213.444 155.5,213.5C 159.843,213.082 164.176,212.582 168.5,212C 174.449,202.768 182.616,196.268 193,192.5C 191.988,195.341 193.155,196.674 196.5,196.5 Z"/></g>
</svg>
